<svg xmlns="http://www.w3.org/2000/svg" width="187" height="71" fill="none"><path fill="#fff" d="M46.359 63.229c0 .159-.212.159-1.272-.265-1.325-.477-1.961-.795-2.491-1.272-.636-.583-1.325-1.696-1.749-2.915l-.318-1.007a2.4 2.4 0 0 1-.159-.689c0-.053-.106-.318-.159-.477-.477-1.219-.901-5.671-.742-7.685l.053-1.113.053-.901.053-.477.053-.53.106-.53c.053-.159.106-.424.053-.636 0-.159.053-.477.106-.636.106-.318.212-.742.265-1.378l.106-.53.212-.954.265-1.219.212-.848c.106-.371.689-2.703.795-2.862l.371-1.219 1.166-4.24.159-.53c.053-.053.106-.212.106-.424l-.212.212c-.106.159-.212.265-.636.689l-1.113 1.378-1.643 2.014-2.968 3.816-1.378 1.643-.848 1.113-1.537 1.961-.477.636-1.855 2.544-.53.742c-.106.159-.689.901-1.166 1.696l-1.484 2.173c-.583.848-1.166 1.855-1.219 2.12 0 .106.053.212.106.212.106.053.106.106 0 .265-.318.371-.795-.053-.689-.636.053-.583.477-1.378 1.484-2.915.53-.795.954-1.484 1.007-1.59s.106-.212.159-.265.159-.159.265-.318l.159-.318.265-.318.424-.583c.371-.583.477-.795 1.855-2.65l1.06-1.431.477-.636 1.166-1.484c.371-.477.742-.954 1.166-1.431l3.604-4.558.53-.583 1.484-1.855 1.113-1.378.636-.742c.318-.371.636-.742.795-.848l.106-.106c0-.106.053-.212.053-.212h.053c.053-.106.053-.159.106-.159s.212-.159.371-.371c.477-.636 1.007-1.219 1.113-1.272l.477-.53.742-.901 2.544-2.862 2.12-2.226.954-1.113.795-.901.636-.795.265-.371c.106-.159.212-.265.265-.318.053 0 .212-.159.318-.371l.424-.53c.106-.106.106-.212.106-.265.106-.053.159-.159.212-.265-.477.106-.954.212-1.378.371-.106-.053-2.491.106-3.657.318l-1.06.106-1.802.212c-1.007.106-1.749.159-1.802.212l-.424.106c-1.007.106-2.226.265-2.385.318-.106 0-.424.053-.689.053s-.53.053-.636.106-.795.159-1.537.265l-2.067.265-1.113.212c-.53.053-2.014.318-2.332.424l-1.219.265-.318.053c-.159.053-.53.106-1.696.371l-1.484.371c-.318.053-.636.159-.689.212s-.318.106-.636.212l-.636.159-1.007.318-1.113.371a7.2 7.2 0 0 0-1.431.636c-.053 0-.159.053-.265.053s-1.855 1.007-1.961 1.06l-.583.53c-.583.424-.795.636-1.166 1.113-.265.371-.371 1.272-.265 1.802l.106.583c.053.424.212.901.371 1.219.265.477.212.742-.159.424-.265-.265-.477-.848-.583-1.325 0-.265-.053-.477-.106-.53-.212-.106-.053-1.855.159-2.12.053-.106.106-.265.212-.424.053-.159.159-.318.212-.371.106-.053.265-.159.424-.318.265-.265.848-.795.954-.795l.53-.318c.424-.318 1.325-.848 1.484-.848l.371-.159c.636-.318.901-.424 1.06-.424.106 0 .212-.053.265-.053l.583-.212 1.113-.371c.371-.106.848-.265 1.113-.318.318-.053.636-.159.742-.212s.954-.265 1.855-.477l1.802-.477.53-.053 1.219-.265 2.385-.424 8.904-1.325c.318-.053.636-.106.742-.159.106 0 .477-.053.795-.053l1.272-.159 2.703-.371 3.551-.371c.159 0 .477-.106.689-.212.583-.265.689-.318 1.007-.371l.318-.053c.053-.053.212-.053.371-.053.265-.053.689-.053.795.106.106.106-.106.371-.424.477s-1.219.689-1.219.795c0 0-.159.212-.318.371l-3.392 4.081-4.823 5.406-.583.636c-.318.371-.583.636-.583.689 0 0-.106.159-.265.318-.106.106-.371.371-.689.742.106 0 .212-.053.265-.053.159 0 .265.053.371 0l.212-.106h.212l2.332-.742 2.703-.954 1.696-.636.318-.159h.159l.265-.159c.212-.053.371-.159.53-.265l.477-.212 1.007-.477.318-.159.689-.371c.265-.106.901-.53 1.484-.901l1.643-1.06c.901-.583 3.021-2.067 3.392-2.385l.742-.53c.424-.318 1.378-1.007 1.855-1.431l1.537-1.219c1.06-.795 1.749-1.378 2.226-1.908l.848-.848c.424-.53 1.484-1.431 1.643-1.431.053 0 .106.106.106.212.053.159-.053.318-.318.583l-.53.424-.318.318-.742.795-.848.848-.689.53-1.272 1.06-1.484 1.113c-.053.106-.265.265-.477.371l-.424.318c-.159.212-2.279 1.696-4.558 3.18-1.961 1.325-2.597 1.749-4.187 2.597-.636.318-1.855.901-2.014.954-.318.159-.954.424-1.59.689l-.689.265-2.279.795-2.332.848-1.06.371c-.265.106-.477.159-.689.318l-.265.159c-.053.106-.159.159-.212.318l-1.06 1.908c-.212.318-.318.583-.318.636l-.159.477c-.424 1.166-.901 2.65-.954 2.915l-.371 1.378-.848 2.968-.477 1.855-.106.371-.159.795-.212.954c-.212 1.06-.583 3.286-.689 4.187-.265 2.438-.053 7.049.371 8.215 0 .159.106.424.106.636.212 1.431.954 3.604 1.643 4.611.477.848 1.219 1.378 2.173 1.696.848.265 1.961.795 1.961.848m5.957-14.84c-.106.106-.265 0-.424-.265-.106-.265-.106-.265.159-.742.318-.689.954-1.749 1.325-2.173l.477-.742c0-.053.106-.159.212-.212l.106-.159c0-.053.053-.159.159-.212.106-.106.212-.212.265-.318s.159-.265.265-.318c.053-.106.318-.424.53-.689.477-.583 2.438-2.862 3.074-3.551l1.007-1.219.53-.636c.159-.159.37-.424.583-.689l.53-.583c.212-.159.636-.583 1.43-1.484.213-.265.478-.53.584-.636.318-.318.424-.318.477-.424a37 37 0 0 1 2.173-2.385l.106-.159c.053 0 .053-.053.106-.106l.37-.318c.054-.053.054-.053.107-.053l.265-.265c0-.053.053-.053.053-.053s0-.053-.053-.053h-.106l-.265.212c0 .053 0 .053-.424.318h-.053l-.477.318-1.325.954c-.106.053-1.908 1.166-2.544 1.484a43 43 0 0 0-2.544 1.431c0-.053-2.014 1.06-2.067 1.06l-.106.053-.053.053-.742.371h-.053l-.053.053h-.053l-3.34 1.59a10.4 10.4 0 0 1-1.96.689h-.16a1.3 1.3 0 0 1-.635 0c-.212 0-.318-.106-.424-.265-.16-.212-.16-.371-.106-.583 0-.159.053-.371.159-.53l.159-.371c0-.053-.69.318-1.113.689-.424.318-1.484.848-1.75.848-.317 0-.476-.053-.476-.318 0-.159.106-.265.37-.477.637-.53 1.644-1.166 2.439-1.59.9-.477 1.06-.53 1.113-.318 0 .053.159.106.265.106.636 0 .106.636-.106.901-.265.318-.636.901-.424 1.378.053.212.742 0 .742 0 .689-.159 2.544-.954 4.876-1.961l.954-.477.159-.106c.742-.424 1.696-.954 1.96-1.06l.16-.106 3.816-2.226c.477-.318.9-.53.9-.53 0 .053.319-.159.69-.371.37-.265 1.43-.901 2.014-1.272l1.749-1.166c.212-.159.37-.318.53-.424.106-.106.37-.371.742-.636h-1.113c0-.106-4.081.212-4.134.212-.106 0-.69.053-1.007.106l-2.544.159c-.212 0-1.802.106-2.597.212-.212.053-.795.106-1.325.159-.477.053-1.06.159-1.272.159-.424.106-.848.053-.848-.053 0-.424 1.007-.53 4.823-.848l1.219-.106c.053 0 .424-.053.9-.053.372-.053 1.803-.106 1.803-.106.053 0 .477-.053.954-.053.477-.053 2.438-.159 3.869-.212.37 0 1.06 0 1.749-.053.53-.53 1.113-1.007 1.113-1.06s.053-.106.106-.106 1.272-1.325 2.12-2.279c.159-.212.689-.265.795-.106.053.212-.106.53-.424.954-.318.318-.636.371-1.75 1.749-.105.159-.423.477-.794.848.9-.053 1.643-.053 1.643-.053 1.219 0 2.65 0 3.392.053h2.12c.689 0 1.537 0 1.802.053h1.325l2.385.106c.053 0 .742.053 1.484.053s1.325.053 1.378.053c0 0 .424 0 .954.053.477 0 .9.053.954.053 0 0 .265.053.477.053.265 0 .636.053.848.106l1.113.106c.848.106 1.378.265 1.378.424.053.212-.106.371-.318.424-.16 0-.371.053-.477.053-.212.053-.265.053-.318-.159-.106-.212-.16-.212-.424-.265-.212 0-.53 0-.742-.053a5.5 5.5 0 0 0-1.06-.106l-.901-.106c-.106-.053-.53-.053-.954-.053-.477 0-1.166-.053-1.59-.106-.424 0-1.007-.053-1.325-.053-.265 0-.583 0-.69-.053-.052 0-.158 0-.211.053 0 0-.053.053-.106 0-.053 0-.212-.053-.371-.053-.106 0-.636 0-1.113-.053h-1.643c-.371-.053-1.378-.053-2.226-.106H74.84l-2.332-.053-2.12.053c-.371.371-.69.636-.69.636l-.052.053c-.053.053-.212.265-.424.477-.265.212-.477.371-.477.424-.106 0-1.484 1.325-2.014 1.855-1.961 1.961-2.438 2.597-2.968 3.18l-.742.742c-.212.159-.371.371-.371.424 0 0-.053.053-.106.053-.053-.053-.212.159-.265.318 0 0-.16.159-.318.265-.69.636-.795.795-2.226 2.438-.424.424-.795.848-.848.901l-.16.106c0 .053-.264.424-.635.848-.371.371-.742.795-.795.901s-.371.477-.742.795a52 52 0 0 0-1.643 1.961c-1.75 2.279-2.703 3.816-2.544 4.24 0 .053 0 .159-.053.159zm-5.512-10.547.318-.106c.424-.212 1.325-.742 1.43-.848.107-.106.319-.265.743-.477.159-.053.318-.159.318-.212 0-.106-.106-.106-.636.212-.69.318-1.537.901-1.855 1.219zm18.766.689c-.848.106-.954.106-1.007-.265-.106-.212-.053-.371.212-.795.53-.848 1.749-1.802 2.809-2.173.848-.318 1.325-.371 1.43-.053.054.159-.317.477-1.165 1.06-.901.636-1.431.901-2.014 1.06-.371.106-.477.159-.583.371-.16.159-.16.212-.053.265.318.106 2.067-.53 4.982-1.802l.106-.053h.159l.053.053c.106.053.106.212.053.265l-.69.318-2.384 1.06c-.954.477-1.325.583-1.908.689m.424-1.749c-.106.106.265 0 .848-.318.477-.265 1.272-.795 1.325-.848 0-.106-.53.106-.848.265-.371.106-1.272.742-1.325.901m4.933 1.961c-.265-.106-.424-.424-.318-.848.053-.212.106-.424.318-.954a1 1 0 0 0 .106-.424c-.053.106-.212.159-.318.212s-.318.159-.371.212l-.53.477c-.212.159-.53.424-.742.689s-.424.424-.583.424c-.212.053-.212 0-.265-.212-.053-.371.106-.636.583-.954.53-.318 1.007-.848 1.59-1.59.106-.106.212-.265.318-.424.265-.212 1.484-1.484 1.59-1.59l.53-.53c.106-.106.159-.159.053-.159l.159-.053a2.3 2.3 0 0 0-.795.318c-.212.159-1.272.477-1.537.477q-.318 0-.159-.318c.053-.053.212-.106.424-.212l1.643-.583 1.166-.477.159-.053.318-.159c.265-.106.477-.265.583-.424.106-.106.318-.318.53-.477l1.378-1.06c1.59-1.325 2.968-2.332 4.134-3.074.212-.106.424-.265.424-.318l.053-.053c0 .053.106.053.159-.053.106-.053.371-.265.636-.371l.689-.477c.954-.53 1.908-1.06 2.756-1.431l.689-.318.106-.053.53-.212c.424-.212.795-.265 1.325-.212.318.053.424.265.424.636-.053.265-.53.901-1.113 1.431-.636.53-1.431 1.219-1.484 1.219l-.318.212c-.159.159-.583.424-.954.636l-.742.53a1.1 1.1 0 0 1-.371.212q-.239.08-.318.159c-.212.159-2.173 1.219-3.074 1.643l-1.378.583c-.53.265-1.166.53-1.378.583l-1.643.636-1.06.424c-.318.106-1.007.583-1.06.742l-.795.742c-.689.636-1.855 1.802-1.802 1.908l.477-.212c1.272-.53 2.173-.689 2.544-.53l.212.318c.053.212.053.318-.106.53-.106.106-.265.265-.371.318l-.265.159c0 .053-.265.159-.477.265-.477.212-.848.265-1.325.106h-.212l-.053.212c-.053.106-.795.795-.424 1.325.053.106 1.378-.106 2.173-.477a52 52 0 0 0 3.021-1.272c.53-.265 1.484-.318.265.265-1.007.477-1.802.742-2.491 1.113-1.643.795-2.915.954-3.233.848m4.77-7.208.583-.212.689-.265.212-.106.53-.159a5 5 0 0 0 .477-.159c.053-.053 1.802-.848 2.12-.954l.424-.212.901-.477a29 29 0 0 0 1.643-.954l.795-.477c.318-.159.583-.371.636-.424.159-.106.954-.636 1.06-.636l.212-.212 1.113-.901c.636-.477 1.007-1.06.848-1.219-.106-.159-.424-.159-.742-.053l-.636.265c-1.325.477-4.028 1.961-6.201 3.392-.265.159-.53.318-.583.371-.053 0-.265.159-.53.371l-.795.583c-.212.159-.424.318-.53.424-.053.106-.265.265-.477.371l-1.06.954-.53.424c-.212.106-.318.265-.159.265m-3.763 4.664c.318.159 1.166.053 1.325-.159.053-.106.212-.212.318-.265.265-.106.318-.265.053-.318-.318 0-1.06.212-1.378.477-.106.053-.265.159-.371.159s-.106.053.053.106m7.313-1.431c-.212.106-.53-.212-.371-.318.053-.053.106-.159.106-.318.053-.318.265-.424.477-.265.053.053.159.159.159.265.053.212-.16.583-.371.636m-3.021 3.816c-.53.053-.795-.106-.795-.424v-.159c0-.53.424-1.06 1.378-1.855.37-.265.795-.424.9-.371.266.106.107.371-.53.901l-.9.742a1.02 1.02 0 0 0-.212.636c.212.106.636-.053.636-.053.742-.159 2.332-.795 4.664-1.802l.106-.053h.106l.106.053c.106.053.106.212-.053.318l-.636.265-2.332 1.06c-.848.371-1.855.689-2.438.742m7.048-3.816c-.265.318-.424-.265-.212-.689.159-.371.477-.424.636-.106.053.159.053.212-.424.795M60.908 54.007c-.742-.159-.954-.795-.477-1.537.212-.371 2.173-2.491 2.332-2.491 0 0 .265-.212.477-.424.265-.265.53-.53.689-.583.265-.212.583-.424 1.06-.848l.795-.583.636-.477.954-.53.636-.371c1.06-.636 3.074-1.643 4.293-2.226l.636-.265.37-.159c.372-.106 1.167-.424 1.273-.53.477-.265 3.604-3.498 4.452-4.505.318-.424 1.007-1.06 1.802-1.749.477-.424.689-.53.848-.53.265 0 .318.371.106.53l-.265.159-.742.742c-1.06.954-4.93 4.929-4.823 4.929l.848-.159c.583-.159 2.067-.424 2.332-.424 0 0 .053.053.053.159q0 .159-.16.159c-.105 0-.423.053-.688.106l-1.113.265c-1.06.212-2.067.583-2.385.901-4.77 4.77-5.141 5.141-5.565 5.512l-1.113.954c-.424.424-.848.742-2.915 2.173-.636.477-2.067 1.272-2.226 1.272l-.424.159c-.53.265-1.272.424-1.696.371m-.053-.424c.265.053.9-.053 1.272-.212l.583-.212c.37-.106 1.43-.689 1.855-1.007l.583-.318.477-.371 2.014-1.643 1.749-1.537c.53-.477 1.166-1.113 2.226-2.173l.477-.477.424-.371.265-.265v-.053l.212-.159.159-.159.106-.053.106-.212.106-.106.106-.053.159-.159c.159-.212.265-.318.212-.318-.16 0-1.06.318-1.113.371a.4.4 0 0 1-.212.106c-.212 0-3.604 1.749-3.657 1.908 0 0-.053.053-.106.053-.16 0-2.332 1.272-2.597 1.537-.16.106-.318.212-.371.212s-.477.318-1.272 1.007c-.901.689-.901.689-1.378 1.166l-.477.424-.901.901c-1.272 1.272-1.59 2.014-1.007 2.173m23.811-14.999c-.424.053-.424.053-.583-.159-.106-.159-.106-.265-.053-.424.053-.265.318-.901.477-1.007l.371-.424.424-.477.159-.159.159-.053.053-.053h.053l.159-.053.106.053h.318l.371.053c.159 0 .318.106.371.212.053.053.053.159.053.212v.477c.212.053.318.106.424.159.318.106.742.159 1.166.159 1.802 0 2.968-.424 3.975-.848.053-.053.212-.053.265.053s0 .212-.106.265l-.477.212c-1.113.477-2.809.689-3.551.689a9.7 9.7 0 0 1-1.855-.159l-.159.053c-.212.318-1.113.901-1.272 1.007-.212.106-.636.212-.848.212m1.696-2.067c.106.053.106 0 .106-.053-.053 0-.106-.053-.159-.053-.106 0-.053.053.053.106m-1.484 1.431c.053 0 .212 0 .636-.212l.583-.477c.212-.159.212-.159.106-.212l-.318-.159-.212-.159s0-.053-.053-.053l-.424.424-.371.583-.106.212c-.053.106.106.053.159.053m40.049 25.281c0 .159-.212.159-1.272-.265-1.325-.477-1.961-.795-2.491-1.272-.636-.583-1.325-1.696-1.749-2.915l-.318-1.007a2.4 2.4 0 0 1-.159-.689c0-.053-.106-.318-.159-.477-.477-1.219-.901-5.671-.742-7.685l.053-1.113.053-.901.053-.477.053-.53.106-.53c.053-.159.106-.424.053-.636 0-.159.053-.477.106-.636.106-.318.212-.742.265-1.378l.106-.53.212-.954.265-1.219.212-.848c.106-.371.689-2.703.795-2.862l.371-1.219 1.166-4.24.159-.53c.053-.053.106-.212.106-.424l-.212.212c-.106.159-.212.265-.636.689l-1.113 1.378-1.643 2.014-2.968 3.816-1.378 1.643-.848 1.113-1.537 1.961-.477.636-1.855 2.544-.53.742c-.106.159-.689.901-1.166 1.696l-1.484 2.173c-.583.848-1.166 1.855-1.219 2.12 0 .106.053.212.106.212.106.053.106.106 0 .265-.318.371-.795-.053-.689-.636.053-.583.477-1.378 1.484-2.915.53-.795.954-1.484 1.007-1.59s.106-.212.159-.265.159-.159.265-.318l.159-.318.265-.318.424-.583c.371-.583.477-.795 1.855-2.65l1.06-1.431.477-.636 1.166-1.484c.371-.477.742-.954 1.166-1.431l3.604-4.558.53-.583 1.484-1.855 1.113-1.378.636-.742c.318-.371.636-.742.795-.848l.106-.106c0-.106.053-.212.053-.212h.053c.053-.106.053-.159.106-.159s.212-.159.371-.371c.477-.636 1.007-1.219 1.113-1.272l.477-.53.742-.901 2.544-2.862 2.12-2.226.954-1.113.795-.901.636-.795.265-.371c.106-.159.212-.265.265-.318.053 0 .212-.159.318-.371l.424-.53c.106-.106.106-.212.106-.265.106-.053.159-.159.212-.265-.477.106-.954.212-1.378.371-.106-.053-2.491.106-3.657.318l-1.06.106-1.802.212c-1.007.106-1.749.159-1.802.212l-.424.106c-1.007.106-2.226.265-2.385.318-.106 0-.424.053-.689.053s-.53.053-.636.106-.795.159-1.537.265l-2.067.265-1.113.212c-.53.053-2.014.318-2.332.424l-1.219.265-.318.053c-.159.053-.53.106-1.696.371l-1.484.371c-.318.053-.636.159-.689.212s-.318.106-.636.212l-.636.159-1.007.318-1.113.371a7.2 7.2 0 0 0-1.431.636c-.053 0-.159.053-.265.053s-1.855 1.007-1.961 1.06l-.583.53c-.583.424-.795.636-1.166 1.113-.265.371-.37 1.272-.265 1.802l.106.583c.053.424.212.901.371 1.219.265.477.212.742-.159.424-.265-.265-.477-.848-.583-1.325 0-.265-.053-.477-.106-.53-.212-.106-.053-1.855.16-2.12.052-.106.105-.265.211-.424.053-.159.16-.318.212-.371.106-.053.265-.159.424-.318.265-.265.848-.795.954-.795l.53-.318c.424-.318 1.325-.848 1.484-.848l.371-.159c.636-.318.901-.424 1.06-.424.106 0 .212-.053.265-.053l.583-.212 1.113-.371c.371-.106.848-.265 1.113-.318.318-.053.636-.159.742-.212s.954-.265 1.855-.477l1.802-.477.53-.053 1.219-.265 2.385-.424 8.904-1.325c.318-.053.636-.106.742-.159.106 0 .477-.053.795-.053l1.272-.159 2.703-.371 3.551-.371c.159 0 .477-.106.689-.212.583-.265.689-.318 1.007-.371l.318-.053c.053-.053.212-.053.371-.053.265-.053.689-.053.795.106.106.106-.106.371-.424.477s-1.219.689-1.219.795c0 0-.159.212-.318.371l-3.392 4.081-4.823 5.406-.583.636c-.318.371-.583.636-.583.689 0 0-.106.159-.265.318-.106.106-.371.371-.689.742.106 0 .212-.053.265-.053.159 0 .265.053.371 0l.212-.106h.212l2.332-.742 2.703-.954 1.696-.636.318-.159h.159l.265-.159c.212-.053.371-.159.53-.265l.477-.212 1.007-.477.318-.159.689-.371c.265-.106.901-.53 1.484-.901l1.643-1.06c.901-.583 3.021-2.067 3.392-2.385l.742-.53c.424-.318 1.378-1.007 1.855-1.431l1.537-1.219c1.06-.795 1.749-1.378 2.226-1.908l.848-.848c.424-.53 1.484-1.431 1.643-1.431.053 0 .106.106.106.212.053.159-.053.318-.318.583l-.53.424-.318.318-.742.795-.848.848-.689.53-1.272 1.06-1.484 1.113c-.053.106-.265.265-.477.371l-.424.318c-.159.212-2.279 1.696-4.558 3.18-1.961 1.325-2.597 1.749-4.187 2.597-.636.318-1.855.901-2.014.954-.318.159-.954.424-1.59.689l-.689.265-2.279.795-2.332.848-1.06.371c-.265.106-.477.159-.689.318l-.265.159c-.053.106-.159.159-.212.318l-1.06 1.908c-.212.318-.318.583-.318.636l-.159.477c-.424 1.166-.901 2.65-.954 2.915l-.371 1.378-.848 2.968-.477 1.855-.106.371-.159.795-.212.954c-.212 1.06-.583 3.286-.689 4.187-.265 2.438-.053 7.049.371 8.215 0 .159.106.424.106.636.212 1.431.954 3.604 1.643 4.611.477.848 1.219 1.378 2.173 1.696.848.265 1.961.795 1.961.848m4.473-28.461c-.212.106-.53-.212-.371-.318.053-.053.106-.159.106-.318.053-.318.265-.424.477-.265.053.053.159.159.159.265.053.212-.159.583-.371.636m-3.021 3.816c-.53.053-.795-.106-.795-.424v-.159c0-.53.424-1.06 1.378-1.855.371-.265.795-.424.901-.371.265.106.106.371-.53.901l-.901.742a1.02 1.02 0 0 0-.212.636c.212.106.636-.053.636-.053.742-.159 2.332-.795 4.664-1.802l.106-.053h.106l.106.053c.106.053.106.212-.053.318l-.636.265-2.332 1.06c-.848.371-1.855.689-2.438.742m7.048-3.816c-.265.318-.424-.265-.212-.689.159-.371.477-.424.636-.106.053.159.053.212-.424.795m-22.366 19.239c-.742-.159-.954-.795-.477-1.537.212-.371 2.173-2.491 2.332-2.491 0 0 .265-.212.477-.424.265-.265.53-.53.689-.583.265-.212.583-.424 1.06-.848l.795-.583.636-.477.954-.53.636-.371c1.06-.636 3.074-1.643 4.293-2.226l.636-.265.371-.159c.371-.106 1.166-.424 1.272-.53.477-.265 3.604-3.498 4.452-4.505.318-.424 1.007-1.06 1.802-1.749.477-.424.689-.53.848-.53.265 0 .318.371.106.53l-.265.159-.742.742c-1.06.954-4.929 4.929-4.823 4.929l.848-.159c.583-.159 2.067-.424 2.332-.424 0 0 .053.053.053.159q0 .159-.159.159c-.106 0-.424.053-.689.106l-1.113.265c-1.06.212-2.067.583-2.385.901-4.77 4.77-5.141 5.141-5.565 5.512l-1.113.954c-.424.424-.848.742-2.915 2.173-.636.477-2.067 1.272-2.226 1.272l-.424.159c-.53.265-1.272.424-1.696.371m-.053-.424c.265.053.901-.053 1.272-.212l.583-.212c.371-.106 1.431-.689 1.855-1.007l.583-.318.477-.371 2.014-1.643 1.749-1.537c.53-.477 1.166-1.113 2.226-2.173l.477-.477.424-.371.265-.265v-.053l.212-.159.159-.159.106-.053.106-.212.106-.106.106-.053.159-.159c.159-.212.265-.318.212-.318-.159 0-1.06.318-1.113.371a.4.4 0 0 1-.212.106c-.212 0-3.604 1.749-3.657 1.908 0 0-.053.053-.106.053-.159 0-2.332 1.272-2.597 1.537-.159.106-.318.212-.371.212s-.477.318-1.272 1.007c-.901.689-.901.689-1.378 1.166l-.477.424-.901.901c-1.272 1.272-1.59 2.014-1.007 2.173m23.811-14.999c-.424.053-.424.053-.583-.159-.106-.159-.106-.265-.053-.424.053-.265.318-.901.477-1.007l.371-.424.424-.477.159-.159.159-.053.053-.053h.053l.159-.053.106.053h.318l.371.053c.159 0 .318.106.371.212.053.053.053.159.053.212v.477c.212.053.318.106.424.159.318.106.742.159 1.166.159 1.802 0 2.968-.424 3.975-.848.053-.053.212-.053.265.053s0 .212-.106.265l-.477.212c-1.113.477-2.809.689-3.551.689a9.7 9.7 0 0 1-1.855-.159l-.159.053c-.212.318-1.113.901-1.272 1.007-.212.106-.636.212-.848.212m1.696-2.067c.106.053.106 0 .106-.053-.053 0-.106-.053-.159-.053-.106 0-.053.053.053.106m-1.484 1.431c.053 0 .212 0 .636-.212l.583-.477c.212-.159.212-.159.106-.212l-.318-.159-.212-.159s0-.053-.053-.053l-.424.424-.371.583-.106.212c-.053.106.106.053.159.053m9.628 2.544-.159-.159c-.371-.371-.583-1.643-.583-1.749.053-.106-.053-.477-.106-.477s-.265.318-.424.53c-.371.371-.583.742-.901.742-.265.053-.318 0-.53-.159-.159-.212-.159-.265-.159-.583.106-.477.424-1.643.689-2.226.159-.424.265-.53.424-.53.477-.053.477.265.106.954-.318.477-.742 2.014-.583 2.014.053 0 .371-.318.795-.954.371-.424.636-.583.954-.53.212.053.318.212.265.636 0 .689.212 1.696.371 1.696.106 0 1.007-1.855 1.166-2.385.106-.265.159-.636.159-.795v-.424s0-.053.053-.053c.053-.106.106-.106.212-.106.159 0 .424.053.742.159 1.007.424 1.908.689 3.445.742 1.166 0 2.067-.053 2.65-.159s.689-.159 1.06-.265c.53-.159.477-.212.53-.159.159.212.053.318-.053.371l-.53.212-.901.212a11 11 0 0 1-1.59.159h-1.007a8.6 8.6 0 0 1-1.749-.159l-.742-.106-.901-.212c-.159 0-.265-.159-.424-.106h-.212c0 .053.053.159 0 .318 0 .212-.265.689-.424 1.007-.636 1.431-.742 1.643-1.007 2.173l-.159.265-.106.053-.159.053a.16.16 0 0 1-.212 0m8.088.583c-.212.106-.53 0-.53-.159 0 0-.106-.159-.212-.265-.159-.159-.159-.265-.159-.583.053-.424.371-.742 1.113-1.166l.583-.424c.053 0 .212-.106.424-.159.212-.106.424-.212.477-.265 0-.106.053-.53.053-1.007 0-1.007.053-1.219.53-1.484.371-.212.53-.265.689-.106.212.265.106.477-.265.583-.265.053-.265.106-.371.795-.053.742.053.901.424.742.583-.371 3.339-1.113 3.975-1.219.318-.106.424-.106.53 0 .159.159.053.265-.371.371-.954.265-2.332.689-1.908.53-.689.212-1.378.424-1.802.636l-.53.212c-.159.106-.265.265-.318.53-.053.212-.159.53-.265.689-.212.53-1.431 1.59-2.067 1.749m0-.583c.106 0 .424-.212.742-.53.583-.583.689-.742.742-1.06v-.265l-.371.212-.53.318c-.106.053-1.007.583-1.007.901 0 .212.212.424.424.424m7.721-1.749c-.265-.106-.424-.424-.318-.848.053-.212.106-.424.318-.954a1 1 0 0 0 .106-.424c-.053.106-.212.159-.318.212s-.318.159-.371.212l-.53.477c-.212.159-.53.424-.742.689s-.424.424-.583.424c-.212.053-.212 0-.265-.212-.053-.371.106-.636.583-.954.53-.318 1.007-.848 1.59-1.59.106-.106.212-.265.318-.424.265-.212 1.484-1.484 1.59-1.59l.53-.53c.106-.106.159-.159.053-.159l.159-.053a2.3 2.3 0 0 0-.795.318c-.212.159-1.272.477-1.537.477q-.318 0-.159-.318c.053-.053.212-.106.424-.212l1.643-.583 1.166-.477.159-.053.318-.159c.265-.106.477-.265.583-.424.106-.106.318-.318.53-.477l1.378-1.06c1.59-1.325 2.968-2.332 4.134-3.074.212-.106.424-.265.424-.318l.053-.053c0 .053.106.053.159-.053.106-.053.371-.265.636-.371l.689-.477c.954-.53 1.908-1.06 2.756-1.431l.689-.318.106-.053.53-.212c.424-.212.795-.265 1.325-.212.318.053.424.265.424.636-.053.265-.53.901-1.113 1.431-.636.53-1.431 1.219-1.484 1.219l-.318.212c-.159.159-.583.424-.954.636l-.742.53a1.1 1.1 0 0 1-.371.212q-.239.08-.318.159c-.212.159-2.173 1.219-3.074 1.643l-1.378.583c-.53.265-1.166.53-1.378.583l-1.643.636-1.06.424c-.318.106-1.007.583-1.06.742l-.795.742c-.689.636-1.855 1.802-1.802 1.908l.477-.212c1.272-.53 2.173-.689 2.544-.53l.212.318c.053.212.053.318-.106.53-.106.106-.265.265-.371.318l-.265.159c0 .053-.265.159-.477.265-.477.212-.848.265-1.325.106h-.212l-.053.212c-.053.106-.795.795-.424 1.325.053.106 1.378-.106 2.173-.477a52 52 0 0 0 3.021-1.272c.53-.265 1.484-.318.265.265-1.007.477-1.802.742-2.491 1.113-1.643.795-2.915.954-3.233.848m4.77-7.208.583-.212.689-.265.212-.106.53-.159c.212-.053.477-.159.477-.159.053-.053 1.802-.848 2.12-.954l.424-.212.901-.477a29 29 0 0 0 1.643-.954l.795-.477c.318-.159.583-.371.636-.424.159-.106.954-.636 1.06-.636l.212-.212 1.113-.901c.636-.477 1.007-1.06.848-1.219-.106-.159-.424-.159-.742-.053l-.636.265c-1.325.477-4.028 1.961-6.201 3.392-.265.159-.53.318-.583.371-.053 0-.265.159-.53.371l-.795.583c-.212.159-.424.318-.53.424-.053.106-.265.265-.477.371l-1.06.954-.53.424c-.212.106-.318.265-.159.265m-3.763 4.664c.318.159 1.166.053 1.325-.159.053-.106.212-.212.318-.265.265-.106.318-.265.053-.318-.318 0-1.06.212-1.378.477-.106.053-.265.159-.371.159s-.106.053.053.106m6.253 2.332c-.212 0-.318-.106-.424-.265-.159-.212-.159-.371-.106-.583 0-.159.053-.371.159-.53l.159-.371c0-.053-.689.318-1.113.689-.424.318-1.484.848-1.749.848-.318 0-.477-.053-.477-.318 0-.159.106-.265.371-.477.636-.53 1.643-1.166 2.438-1.59.901-.477 1.06-.53 1.113-.318 0 .053.159.106.265.106.636 0 .106.636-.106.901-.265.318-.636.901-.424 1.378.053.212.742 0 .742 0 .689-.159 2.279-.795 4.611-1.802l.106-.053h.159l.053.053c.106.053.106.212 0 .265l-3.021 1.378c-1.007.477-1.961.689-1.961.689h-.159a1.3 1.3 0 0 1-.636 0m-2.968-.689.318-.106c.424-.212 1.325-.742 1.431-.848s.318-.265.742-.477c.159-.053.318-.159.318-.212 0-.106-.106-.106-.636.212-.689.318-1.537.901-1.855 1.219z"/></svg>