<svg xmlns="http://www.w3.org/2000/svg" width="99" height="72" fill="none"><g clip-path="url(#a)"><path fill="#fff" d="M40.961 62.341c-.159 0-2.014-.159-2.332-.212-.424-.053-2.703-.53-2.756-.53l-.477-.159c-.689-.159-2.226-.583-2.65-.742l-.689-.212c-.424-.106-1.272-.424-2.968-1.06l-3.816-1.378-.689-.265-.742-.265-1.59-.636s-.212-.106-.424-.159c-.212 0-.583-.159-.9-.318-.743-.318-1.114-.424-1.538-.53-.159-.053-.37-.106-.424-.159l-2.49-1.113-3.499-1.643a19 19 0 0 1-1.484-.742c-.689-.424-2.173-1.113-2.65-1.325-.424-.212-.742-.212-1.272 0-.265 0-.53.053-.795 0-.212-.053-.477 0-.689-.053-.265-.106-.477-.424-.636-.583l-.106-.212c.053-.159.106-.318.106-.477v-.53c0-.053.053-.106.053-.159 0-.106.053-.212.106-.212.212-.106.954.106 1.75.477.105.053.105.053.105 0l.583.371c.053.053.318.212.636.371L9.85 48.88c.424-.37.901-.848 1.113-1.06l.477-.477 3.445-3.657 5.3-5.777c.106-.106.583-.583 1.113-1.272l.583-.636c.53-.53 1.06-1.113 1.855-2.067l.69-.795c.105-.106.476-.583 1.165-1.484.477-.583 1.537-1.696 1.643-1.696l.212-.318.265-.37.371-.372 2.544-2.862c.106-.212.371-.424.53-.583l.265-.265c0-.053.106-.159.212-.212.106-.106.212-.212.265-.212 0-.053.053-.159.16-.212.105-.053.158-.159.211-.212 0-.053.053-.106.053-.106a.114.114 0 0 0 .106-.106c0-.053.212-.318.477-.583l.848-.954c.265-.265.53-.583.583-.636l.742-.689 1.378-1.484 3.127-3.127.265-.212-.636.212-.9.318c-.16.053-.319.16-.319.16 0 .052-.212.105-.477.211l-.636.265c-.159.053-.265.106-.318.106s-.424.106-.848.318c-.37.16-1.43.53-2.279.795l-1.643.583-2.915.795c-1.378.371-3.657.954-3.975.954l-.424.106c-.106.053-.37.053-.53.106l-.9.053c-1.326.16-1.962.053-2.227-.318-.318-.37-.212-.424.848-.212.954.16 1.06.16 2.014 0l1.75-.318c.635-.106 2.914-.636 3.285-.742l1.166-.318c.212.053 4.4-1.325 5.618-1.802l.636-.212a.4.4 0 0 0 .212-.106c.053-.053.477-.212.848-.318.424-.159 1.007-.424 1.378-.583l1.007-.424c.16-.053.318-.159.318-.159 0-.053.16-.159.371-.212.16-.106.318-.159.318-.212l.265-.106c.212-.053 1.696-1.113 2.385-1.749.477-.424 1.696-1.43 1.855-1.537.212-.106.583 0 .583.212 0 .106-.159.318-.318.477l-.477.477c-.106.212-1.219 1.007-1.272 1.007s-.318.16-1.537 1.007c-.636.477-1.166.901-1.749 1.484l-.477.424-1.378 1.378c-.477.477-.9.901-.9.954s-.054.053-.107.106c-.053 0-.636.53-.636.636l-1.59 1.59c0 .053-.053.106-.106.16-.106 0-.318.264-.583.53-.583.635-1.378 1.43-1.696 1.748l-.636.742c-.265.318-1.113 1.166-1.484 1.537-.212.212-.37.424-.37.477s-.054.053-.107.106l-.265.212c-.636.69-1.06 1.166-1.219 1.378a.9.9 0 0 1-.318.318l-.424.424c-.212.371-1.007 1.06-1.272 1.378l-.37.424-1.909 2.438-.583.636-.318.424-.689.795-2.067 2.226-.424.477-5.088 5.512-2.226 2.332a2.6 2.6 0 0 1-.477.53c-.053 0-.159.106-.212.212-.053.16-.106.212-.159.212s-.159.16-.318.318l-.424.477-.848.795-1.59 1.431.371.16c.477.211 2.385 1.165 2.968 1.536.53.265 1.06.53 1.484.69.16.052.636.264 1.166.582l1.855.848c.742.371 2.756 1.22 3.127 1.325l.583.212 6.837 2.597 3.816 1.325 1.272.424 1.272.371c2.703.848 5.353 1.325 7.791 1.431 1.59.053 1.59.053 3.498-.106 1.855-.212 3.233-.424 4.505-.742l.318-.053.954-.212 1.802-.477c.424-.106.848-.265 1.007-.318l.265-.106c.106.053 1.537-.689 1.855-.9.477-.372 1.643-1.538 1.643-1.697.053-.053.053-.106.106-.106.106 0 .69-.954.795-1.272q0-.159.16-.318c.105-.159.105-.159.052 0-.053.53-1.007 2.067-1.643 2.756-.318.265-1.537 1.22-2.014 1.537-.37.212-1.43.636-2.173.848l-.636.212c-.106.106-.742.318-1.378.477l-1.166.265-2.279.477c-.424.106-2.279.424-2.385.371h-.424c-.159.053-.37.053-.424 0 0-.053-.106-.053-.159 0-.106.053-.212.106-.318.106h-2.597zM6.671 50.363c.158.106.635.106.688 0 0-.053.053-.053.16-.053.211.053.105-.106-.16-.212l-.265-.106c-.212-.106-.742-.318-.848-.318-.106-.053-.159 0-.159.053s.318.424.583.636zM33.3 39.286c-.212 0-.318-.106-.424-.265-.159-.212-.159-.37-.106-.583 0-.159.053-.37.16-.53l.158-.37c0-.054-.689.317-1.113.688-.424.318-1.484.848-1.749.848-.318 0-.477-.053-.477-.318 0-.159.106-.265.371-.477.636-.53 1.643-1.166 2.438-1.59.901-.477 1.06-.53 1.113-.318 0 .053.16.106.265.106.636 0 .106.636-.106.901-.265.318-.636.901-.424 1.378.053.212.742 0 .742 0 .69-.159 2.28-.795 4.611-1.802l.106-.053h.16l.052.053c.106.053.106.212 0 .265l-3.02 1.378a10.4 10.4 0 0 1-1.962.69h-.159a1.3 1.3 0 0 1-.636 0zm-2.968-.689.318-.106c.424-.212 1.325-.742 1.431-.848s.318-.265.742-.477c.16-.053.318-.159.318-.212 0-.106-.106-.106-.636.212-.689.318-1.537.901-1.855 1.22zm13.087 1.007c0-.053 0-.212.053-.318.212-.477 1.008-1.272 2.544-2.544l.371-.424c.372-.37.742-.477.901-.37.212.158.16.264-.159.635l-.318.371.319-.159 1.007-.37.954-.372c.264-.053.318-.053.424.16.159.211.159.211.477.105l.423-.212c.107-.053.213-.106.319-.106.159 0 .848-.265 1.325-.477.37-.212.476-.212.582-.106.265.265-.106.69-.583.742-.264 0-.741.16-1.006.265-.53.265-.848.424-1.272.53-.319.106-.53.212-.584.265-.053 0-.212.053-.318.053-.212 0-.264 0-.317-.106s-.053-.212 0-.265c.105-.212-1.484.371-1.855.69l-.69.423c-.53.318-1.325.954-2.014 1.59-.264.265-.477.265-.583 0m-5.936-.106c-.265.318-.742.212-.689-.212.053-.106.212-.318.371-.53l.478-.583c.424-.53 1.642-1.749 2.12-2.014.211-.159.317-.159.476-.106.319.106.212.424-.318.901-.423.371-.582.583-.423.477l.476-.212c.265-.159 1.378-.636 1.484-.742.319-.159.477-.106.53.212.053.16.107.212.213.212.318 0 1.378-.477 1.855-.795.158-.106.317-.159.37-.159s.212-.106.425-.212c.424-.318.583-.318.689-.106.106.16.053.318-.265.636-.16.106-.266.16-.425.16-.105 0-.37.052-.477.105l-.583.265-.847.424c-.742.265-1.166.318-1.485.16-.212-.16-.265-.16-.53-.054l-.583.318c-1.112.53-1.43.69-1.642.901l-.584.424c-.212.16-.53.371-.636.53M29.27 60.062c-.212 0-.424-.318-.37-.583.105-.37.635-1.007 1.483-1.855.795-.795 2.014-1.96 2.65-2.544l.901-.795c.424-.37 1.113-1.007 1.643-1.43l.742-.584 1.166-.9c.265-.213.424-.372.424-.425.16 0 .371-.212.318-.159l.583-.424.424-.265c.053-.053.106-.106.106-.053 0 0 .106-.053.212-.159.16-.159 1.007-.636 1.113-.636.053 0 .16-.053.265-.159l1.75-1.007c.635-.37 2.914-1.43 3.232-1.484.106-.053.212-.053.212-.106s.053-.053.106-.053.265-.053.477-.159l.742-.265c.212-.106.424-.159.477-.212a.4.4 0 0 1 .265-.106c.106 0 .318-.106.424-.159.265-.106 2.014-1.802 2.332-2.226l.583-.636 4.24-4.293c-.265.106-.9.424-1.113.53l-.583.265c-.37.106-.477.106-.689 0-.106-.053-.212-.159-.212-.212l-.053-.265c-.053-.212.16-.689.371-.9l.636-.69.212-.159c0-.053.053-.106.106-.159h.212c.106 0 .212 0 .265.106.053.053.106.212 0 .318l-.106.106-.106.053-.159.106-.159.16c-.848 1.006-.848 1.165.106.794a6 6 0 0 0 .742-.318.4.4 0 0 1 .212-.106l.848-.424a.64.64 0 0 0 .265-.265c.318-.37.371-.37.424-.424.16-.053.265-.053.371 0l.053.053c.053.053.16.106.16.212a.56.56 0 0 1-.107.265c-.106.106-.477.424-.583.477-.053 0-.053.053-.053.053-.848 1.272-4.24 4.558-5.83 6.148-.583.636-.689.795-.477.69l1.908-.478c.583-.159 1.272-.265 1.537-.318.265 0 .477-.053.53-.106 0-.053.16-.053.265-.053s.212 0 .318-.053c.053-.053.265-.053.424-.106l1.22-.159c1.006-.106 2.331-.106 2.861 0 .424.053.583.53.212.795-.212.16-1.43.371-1.537.212-.106-.053 0-.37.106-.37.053 0 .053-.054.053-.054 0-.053-.9-.106-1.325 0l-.848.053c-.265 0-.795.053-1.06.16l-2.067.37c-.53.106-2.12.583-2.756.795l-.742.265c-.265 0-.795.477-2.915 2.491-2.12 2.067-4.24 3.922-5.3 4.717l-.689.53c-.265.16-.477.371-.53.371 0 .053-.053.106-.053.106-.053 0-.265.106-.53.318a47 47 0 0 1-3.392 2.28c-.954.53-1.96 1.112-2.385 1.324-.848.424-1.272.636-1.643.848l-1.43.795c-.266.212-1.22.53-1.485.53m.16-.53c0 .16.582-.053 2.384-1.007l1.59-.848c1.007-.53 2.544-1.378 2.81-1.59l1.006-.689c.901-.583 1.431-.954 1.75-1.219l.476-.318c.16-.106.477-.318.583-.477.16-.106.424-.265.53-.37.16-.054.265-.16.318-.213l.954-.742.371-.318a51 51 0 0 0 3.021-2.65c.901-.9 2.65-2.703 2.65-2.756 0-.106-.106-.053-.583.16a1.16 1.16 0 0 1-.53.211c-.053 0-.212.106-.318.16-.106.105-.424.211-.742.317-.9.265-3.445 1.537-3.763 1.855-.106.053-.265.16-.424.212a1.15 1.15 0 0 0-.424.265c-.106.053-.212.106-.265.106 0 0-.318.16-.636.371l-.954.636c-.212.16-.424.265-.424.318s-.053.053-.106.053-.212.106-.37.265l-.319.265-.106.053-.53.424c-.159.16-.424.318-.53.318a.29.29 0 0 0-.159.265c0 .053-.053.106-.159.106a.4.4 0 0 0-.212.106l-.37.318c-2.386 1.855-6.52 5.883-6.52 6.413zm51.044-16.695c-.159-.053-.212-.159-.265-.742-.106-.583.106-1.537.371-1.908.053-.159.106-.265.106-.37.053-.107.106-.266.318-.584.265-.37.583-.848.583-.954 0-.053.053-.106.053-.053.053 0 .106-.053.106-.159 0-.053.053-.106.106-.106s.053 0 .053-.106l.16-.159q.078 0 .158-.159c0-.053 0-.159.053-.159l.424-.53c.212-.265.371-.477.424-.477s.053-.053.053-.106.106-.159.265-.318l.212-.265c0-.053.053-.159.212-.318h-.106c-.106 0-.37-.265-.37-.37 0-.054.052-.107.105-.054.106.053.69-.106.69-.212 0 0 .052-.053.105 0 0 0 .053 0 .16-.053l1.06-1.06c.264-.212 1.483-1.378 2.066-1.908a58 58 0 0 1 4.187-3.339c.477-.37 1.113-.689 1.59-1.007.424-.318 1.22-.795 1.802-.954.583-.212.901 0 .795.424-.106.477-1.96 2.12-2.756 2.703l-1.325 1.06-.689.53-.583.424-.53.371c-.159.106-1.166.742-1.537 1.007-.318.265-.848.583-.9.583l-.478.318c-.424.318-.53.371-1.007.636l-.954.636c-.106.053-.212.106-.318.212 0 .053-.053.106-.106.16-.106 0-2.173 2.65-2.862 3.71-.795 1.165-1.113 1.854-1.219 2.808-.106.583-.159.848-.212.848m5.777-8.957 1.007-.583.212-.159c.212-.106 1.06-.742 1.378-1.007.212-.159.848-.583 1.06-.689.212-.159 1.431-1.007 1.855-1.378l.318-.212c.053 0 .371-.265.795-.636l1.007-.795.742-.689.16-.159.105-.159.053-.053.16-.106v-.053l.105-.106c.053-.053.053-.106.053-.106 0-.106-.053-.159-.106-.106-.106 0-.159 0-.212.053l-.106.053-.265.16-.37.211-.849.53-.318.212-.424.371-.795.53-1.908 1.537c-.106 0-2.809 2.332-3.286 2.862-.424.477-.53.53-.37.477zm3.44 1.643c-.213.106-.53-.212-.372-.318.053-.053.106-.159.106-.318.053-.318.265-.424.477-.265.053.053.16.16.16.265.052.212-.16.583-.372.636zm-3.022 3.816c-.53.053-.795-.106-.795-.424v-.159c0-.53.424-1.06 1.378-1.855.371-.265.795-.424.901-.37.265.105.106.37-.53.9l-.9.742a1.02 1.02 0 0 0-.213.636c.212.106.636-.053.636-.053.742-.159 2.332-.795 4.664-1.802l.106-.053h.106l.106.053c.106.053.106.212-.053.318l-.636.265-2.332 1.06c-.848.371-1.855.69-2.438.742m4.133.053-.159-.265c-.106-.265 0-.583.053-.795.16-.477 1.326-1.59 1.697-2.014.212-.159.264-.212.37-.106.212.106.053.371-.159.636-.477.583-1.59 1.75-1.483 1.961.212.424 1.802-.795 2.544-1.696l.105-.159.319-.318.106-.159c.265-.265.318-.265.477-.212.424.16-.266.848-.742 1.431-.372.477-.53.954-.425 1.113.053.265.584.053.584.053.742-.159 2.332-.795 4.663-1.802l.107-.053h.106l.105.053c.107.053.107.212-.052.265l-.636.318-2.333 1.06a18 18 0 0 1-1.96.69h-.16c-.9.211-1.06-.372-.954-.849v-.212l-.052.053-.371.318c-.266.212-1.008.69-1.431.69z"/></g><defs><clipPath id="a"><path fill="#fff" d="M0 .755h99v71H0z"/></clipPath></defs></svg>