<svg xmlns="http://www.w3.org/2000/svg" width="187" height="71" fill="none"><path fill="#fff" d="M8.71 56.659c-.211-.053-.37-.53-.317-1.06 0-.318.37-1.484.583-1.855.053-.106.053-.212 0-.265 0-.053 0-.053.053-.053 0 .053.159-.212.37-.53l.372-.636c.053-.106.212-.424.212-.53 0-.053.053-.106.105-.106 0 0 .054-.053.054-.106s.106-.212.212-.265c.106-.106.212-.265.212-.318s.9-1.643 1.324-2.226l.265-.424.319-.424c.053-.106.105-.212.105-.265s.106-.159.16-.265c.105-.053.159-.159.159-.212s1.165-1.59 1.271-1.696l.265-.371.69-.848c.159-.212.476-.742.688-1.06l.902-1.06.742-.954.636-.742.53-.689.954-1.06c.794-.954 1.271-1.537 1.271-1.59s.053-.053.106-.053c.053-.053.16-.106.213-.212.212-.371 2.172-2.862 4.133-4.982l.902-1.007.317-.371a155 155 0 0 0 4.717-4.982l.265-.318.477-.424c.796-.848 1.696-1.749 1.696-1.855v-.053c.053.053.106 0 .212-.106l.637-.583c.583-.477 3.127-2.915 3.763-3.604.212-.212.424-.477.424-.583l.105-.159c.053 0 .106-.106.212-.265s.106-.212 0-.265c-.53-.424-1.696-.53-4.77-.53-2.438 0-5.83.159-6.041.265-.053.053-.372.053-.584.053-.424 0-1.378.106-2.067.212l-2.014.212c-1.113.053-5.247.795-6.306 1.113l-.796.265c-.636.159-2.279.689-2.968.954-.848.318-1.325.265-.9-.106.105-.159 2.12-.848 3.127-1.166l.424-.106c.424-.106 1.907-.53 2.172-.583l1.22-.265c.848-.159 1.537-.265 3.338-.477l1.962-.212 2.12-.265 1.854-.159.796-.053 1.325-.106 2.172-.106c.954-.053 3.87 0 4.452.106l.795.106c.319 0 .583.053.69.106a.4.4 0 0 0 .264.106c.319 0 .849.265.902.477.105.318-.424 1.007-1.484 2.067l-1.326 1.219a53 53 0 0 1-1.802 1.696c-.954.848-2.968 2.862-4.08 4.081-1.008 1.113-2.545 2.544-3.976 4.081l-3.816 4.187c-.636.636-1.907 2.438-2.596 3.286l-1.325 1.537-1.008 1.113-.742.954a80 80 0 0 0-1.907 2.332c-.319.424-.69 1.007-.796 1.113l-.53.689-.794 1.06-.742 1.06-.584.901-.318.53-.265.424-.37.636-.69 1.06-.794 1.325-.53.954c-.583 1.113-1.007 2.544-.742 2.597.159 0 1.642-1.113 2.12-1.59l.582-.477 1.325-1.06.477-.371 3.075-2.491.794-.636.53-.477.53-.424c.053 0 .213-.159.319-.265.105-.106.211-.212.264-.212s.107-.053.954-.848c.742-.636 2.226-1.908 2.28-1.908l4.505-4.134 1.536-1.378c.69-.583 2.015-1.855 5.671-5.459l5.83-5.724c1.643-1.59 2.227-2.279 2.386-2.809.052-.159.105-.318.158-.371.107-.159.425-.159.53 0 .16.371-.105 1.166-.477 1.325-.105.053-.477.371-.848.689l-4.293 4.134c-.105.106-.211.159-.264.159-.107 0-.425.318-.425.371.054.053-.264.371-.953 1.007-.477.477-3.87 3.922-3.87 3.975s0 .053-.052.053c-.053 0-.425.371-.849.795s-.848.795-.9.795c0 0-.213.159-.372.318-.159.212-.37.371-.424.424-.105 0-.211.106-.264.265l-.371.371-.477.318-2.756 2.491-1.273 1.113-.477.424c-.582.583-.848.742-.953.742-.053 0-.107.053-.107.159 0 .053-.159.212-.318.318l-1.748 1.59-.69.636-1.007.795-.689.636c-.37.371-1.006.901-1.537 1.325l-.582.477-.796.689-1.06.848c-.37.318-.688.583-.794.636s-.371.265-.53.424l-1.06.848-1.431 1.219c-.053.106-.16.159-.212.159 0 0-.16.106-.318.265-.371.318-.742.53-.954.53zm26.344-14.628c-.212 0-.318-.106-.424-.265-.159-.212-.159-.371-.106-.583 0-.159.053-.371.16-.53l.158-.371c0-.053-.689.318-1.113.689-.424.318-1.484.848-1.749.848-.318 0-.477-.053-.477-.318 0-.159.106-.265.371-.477.636-.53 1.643-1.166 2.438-1.59.901-.477 1.06-.53 1.113-.318 0 .053.16.106.265.106.636 0 .106.636-.106.901-.265.318-.636.901-.424 1.378.053.212.742 0 .742 0 .69-.159 2.28-.795 4.611-1.802l.106-.053h.16l.052.053c.106.053.106.212 0 .265l-3.02 1.378c-1.008.477-1.962.689-1.962.689h-.159a1.3 1.3 0 0 1-.636 0m-2.968-.689.318-.106c.424-.212 1.325-.742 1.431-.848s.318-.265.742-.477c.16-.053.318-.159.318-.212 0-.106-.106-.106-.636.212-.689.318-1.537.901-1.855 1.219zm7.152.901c-.265.318-.742.212-.69-.212.054-.106.213-.318.372-.53l.477-.583c.424-.53 1.643-1.749 2.12-2.014.212-.159.318-.159.477-.106.318.106.212.424-.318.901-.424.371-.583.583-.424.477l.477-.212c.265-.159 1.378-.636 1.484-.742.318-.159.477-.106.53.212.053.159.106.212.212.212.318 0 1.378-.477 1.855-.795.159-.106.318-.159.37-.159.054 0 .213-.106.425-.212.424-.318.583-.318.689-.106.106.159.053.318-.265.636-.16.106-.265.159-.424.159-.106 0-.371.053-.477.106l-.583.265-.848.424c-.742.265-1.166.318-1.484.159-.212-.159-.265-.159-.53-.053l-.583.318c-1.113.53-1.431.689-1.643.901l-.583.424c-.212.159-.53.371-.636.53m9.606.636c-.477.053-.742-.371-.689-1.06.053-.477.371-1.378.742-2.12.053-.053.159-.583.212-.636.106-.265.265-.424.318-.424.106-.053.212-.053.212-.053l.053.159c.159.265-.106.848-.371 1.325-.371.742-.689 1.908-.583 2.173.053.159.265 0 .795-.53.477-.477.636-.689.901-1.325.212-.371.318-.742.318-.795-.053-.106.318-.265 1.007 0 .954.424 1.908.689 3.392.742 2.173 0 3.286-.212 3.604-.318.583-.106.53-.318.742-.053 0 .159-.371.318-.954.477l-.583.106c-.212 0-1.272.159-1.59.159h-1.007a9.5 9.5 0 0 1-1.802-.159l-.742-.106-.901-.212c-.159 0-.212-.159-.424-.106-.212 0-.371 0-.477.265-.212.53-.901 1.325-1.007 1.484-.318.477-.954 1.007-1.166 1.007m11.83-.848c-.212 0-.318-.106-.423-.265-.16-.212-.16-.371-.106-.583 0-.159.052-.371.158-.53l.16-.371c0-.053-.69.318-1.114.689-.423.318-1.483.848-1.748.848-.319 0-.477-.053-.477-.318 0-.159.105-.265.37-.477.636-.53 1.644-1.166 2.438-1.59.901-.477 1.06-.53 1.113-.318 0 .053.16.106.265.106.636 0 .106.636-.105.901-.265.318-.636.901-.424 1.378.053.212.742 0 .742 0 .688-.159 2.278-.795 4.61-1.802l.107-.053h.159l.052.053a.15.15 0 0 1 0 .265l-3.02 1.378a10.4 10.4 0 0 1-1.962.689h-.159a1.3 1.3 0 0 1-.636 0m-2.968-.689.319-.106c.424-.212 1.325-.742 1.43-.848.107-.106.319-.265.742-.477.16-.053.319-.159.319-.212 0-.106-.106-.106-.636.212-.69.318-1.538.901-1.855 1.219zm7.152.901c-.265.318-.742.212-.69-.212.054-.106.213-.318.372-.53l.477-.583c.424-.53 1.643-1.749 2.12-2.014.212-.159.318-.159.477-.106.318.106.212.424-.318.901-.424.371-.583.583-.424.477l.477-.212c.265-.159 1.378-.636 1.484-.742.318-.159.477-.106.53.212.053.159.106.212.212.212.318 0 1.378-.477 1.855-.795.159-.106.318-.159.37-.159.054 0 .213-.106.425-.212.424-.318.583-.318.689-.106.106.159.053.318-.265.636-.16.106-.265.159-.424.159-.106 0-.371.053-.477.106l-.583.265-.848.424c-.742.265-1.166.318-1.484.159-.212-.159-.265-.159-.53-.053l-.583.318c-1.113.53-1.431.689-1.643.901l-.583.424c-.212.159-.53.371-.636.53m10.878-.212c-.212 0-.318-.106-.424-.265-.159-.212-.159-.371-.106-.583 0-.159.053-.371.16-.53l.158-.371c0-.053-.689.318-1.113.689-.424.318-1.484.848-1.749.848-.318 0-.477-.053-.477-.318 0-.159.106-.265.371-.477.636-.53 1.643-1.166 2.438-1.59.901-.477 1.06-.53 1.113-.318 0 .053.16.106.265.106.636 0 .106.636-.106.901-.265.318-.636.901-.424 1.378.053.212.742 0 .742 0 .69-.159 2.28-.795 4.611-1.802l.106-.053h.16l.052.053c.106.053.106.212 0 .265l-3.02 1.378c-1.008.477-1.962.689-1.962.689h-.159a1.3 1.3 0 0 1-.636 0m-2.968-.689.318-.106c.424-.212 1.325-.742 1.431-.848s.318-.265.742-.477c.16-.053.318-.159.318-.212 0-.106-.106-.106-.636.212-.689.318-1.537.901-1.855 1.219zm36.375 15.635c-1.219-.477-1.59-1.961-.954-3.71.106-.424.318-.954.424-1.166l.265-.477.159-.318c.053-.159.106-.265.106-.318s0-.106.053-.159c.106-.053.318-.583.318-.689 0 0 0-.053.053-.106.159-.053.583-.742.636-.954 0-.106.053-.212.106-.212s.053-.053.053-.106 0-.106.053-.053c.053 0 .159-.159.212-.318.106-.159.265-.477.424-.636.106-.212.265-.371.265-.424 0-.106 1.272-1.802 1.908-2.65l.848-1.06c.212-.371.53-.636.583-.689s.159-.159.159-.212.053-.106.106-.053c0 0 .053-.053.053-.106.053-.053.212-.212.371-.424l.689-.742.583-.583c.159-.106.265-.265.265-.318 0 0 .265-.265.53-.477l.901-.848c.265-.212.53-.477.636-.583l.742-.583c1.06-.901 1.431-1.166 2.756-2.014 1.113-.689 1.166-.742 1.537-.795.212 0 .318 0 .371.106.053.053-.371.371-1.59 1.219-.424.265-.848.583-1.219.848l.053.053-.477.371a1.6 1.6 0 0 1-.477.424c-.159.106-1.272 1.113-1.537 1.378l-1.113 1.06-.689.689-1.802 1.908c-.212.265-.742.848-1.113 1.325l-.742 1.007c-.318.424-1.272 1.696-1.643 2.332l-.53.795c-.106.106-1.431 2.491-1.484 2.65 0 .053-.106.265-.159.424-.265.371-.53 1.113-.795 2.12-.212.53-.159 1.166 0 1.643.159.318.583.742.848.795.318.053 1.802-.371 2.544-.689 0-.053.053-.053.053-.053q.239-.08.318-.159s.053-.053.053 0 .159 0 .371-.106l1.113-.53c.159-.053.371-.159.583-.265l1.113-.53c.159-.053.318-.159.424-.212l.424-.212h.053a10 10 0 0 0 1.06-.53c.477-.212.901-.477 1.325-.689q.477-.238.795-.477l.689-.424c1.378-.795 2.703-1.696 3.074-2.014.159-.159.583-.477.954-.742.795-.53 2.12-1.537 2.915-2.173l3.127-2.544c1.219-1.06 1.643-1.431 1.643-1.484s.106-.106.212-.159.53-.477 1.007-.954.954-.954 1.06-1.007c.106-.106.159-.212.106-.265 0-.053 0-.053.053-.053.053.053.106 0 .212-.106l.954-1.06.795-.901c.265-.265.583-.583.689-.742a1 1 0 0 1 .159-.212c.053.053.159-.106.265-.265s.212-.265.212-.265c.053 0 .159-.053.212-.159l.53-.636.689-.848.689-.689.424-.53.265-.265c.106-.106 1.484-1.855 1.802-2.279l.265-.318c.159-.159.424-.583.477-.689s.636-.901.795-1.007l.159-.159c0-.159.212-.583.318-.689.318-.424.689-1.06.636-1.113l.265-.477c.159-.212.265-.424.212-.424 0-.053.053-.106.106-.212s.159-.371.212-.583l.212-.689c.212-.583.424-1.643.371-1.696s-.053-.159 0-.265c.159-.424.053-1.749-.212-2.756-.106-.424-.424-1.06-.583-1.219-.106-.053-.159-.106-.106-.159.159-.106-1.166-.265-1.749-.212-.689.106-2.915.689-3.498.954l-1.272.53-.53.265-.53.212c-.424.212-1.537.742-2.014 1.007l-.53.318c-2.067 1.166-3.657 2.385-5.618 4.134l-.795.689-.583.53c0 .053-1.272 1.272-1.484 1.431-.106.053-.371.318-.583.583l-.477.53-.159.106a1.15 1.15 0 0 0-.424.265l-.371.371c0 .053-.053.106-.106.159l-.265.371-.106.106-.212.159c-.106.106-.212.212-.265.318l-.424.477a3.4 3.4 0 0 0-.477.583l-.583.742-.53.689-.636.901-.424.636q-.556.874-.636.636c-.053-.053.636-1.431 1.272-2.279l.689-1.007c.265-.318.53-.742.689-.848.106-.159.212-.265.212-.318l.424-.53.424-.477.318-.371.53-.477.53-.583.848-.848c.318-.265.477-.424 1.113-1.007.371-.424 1.007-.901 1.378-1.166l.424-.424c.318-.371 2.014-1.802 2.173-1.802h.053l.212-.159c.212-.265 1.59-1.272 2.65-1.855.318-.212.636-.371.901-.53 1.643-.901 2.703-1.484 3.869-1.961l.954-.424c.053-.053.159-.106.212-.053l.212-.106c.106-.053.583-.212 1.961-.636l.848-.212.689-.159c.159-.053.53-.106.848-.106.583-.053 1.325.106 1.59.318.212.212.636.795.742 1.219.159.477.318 1.802.318 2.438-.053.795-.371 2.597-.636 3.392s-1.06 2.279-1.484 2.968l-.371.53c-.212.371-.901 1.325-1.696 2.385l-.53.795c0 .053-.053.106-.053.106-.053-.053-.212.159-.848.954a22 22 0 0 1-1.484 1.696l-.424.477-.583.636-.424.53-.53.583-.742.848-1.007 1.06-.848.954c-.159.212-.371.424-.424.477s-.106.106-.106.159c0 0-.212.212-.424.371-.424.371-1.59 1.537-1.802 1.749a.29.29 0 0 1-.265.159s-.053 0-.106.053-.159.159-.265.159c-.106.106-.212.212-.212.265 0 .106-.106.212-.212.265s-.212.106-.212.159-.106.159-.212.212-.371.318-.583.477l-.742.636-.742.583c-.424.371-1.166.954-1.696 1.378l-.636.477c-.371.318-1.06.848-2.067 1.537l-.795.636c-.106.106-1.166.901-1.431 1.06l-1.166.742-1.908 1.166c-.053 0-.106.053-.159.053l-.212.159c-.106.053-.265.106-.371.212l-.477.265c-.053 0-.106.053-.159.053a.4.4 0 0 1-.212.106l-1.59.848-.371.212-1.06.53c-.053 0-.106.053-.212.106h-.053c-.212.159-.424.265-.424.265l-.371.212c-.053-.053-.159 0-.371.106-.159.106-.318.159-.371.159q-.08 0-.318.159a1.1 1.1 0 0 1-.318.106c-.053 0-.212.053-.371.159s-.477.212-.689.265l-.795.318c-.583.265-1.696.371-2.067.265m29.197-12.402c-.212.106-.53 0-.53-.159 0 0-.106-.159-.212-.265-.159-.159-.159-.265-.159-.583.053-.424.371-.742 1.113-1.166l.583-.424c.053 0 .212-.106.424-.159.212-.106.424-.212.477-.265 0-.106.053-.53.053-1.007 0-1.007.053-1.219.53-1.484.371-.212.53-.265.689-.106.212.265.106.477-.265.583-.265.053-.265.106-.371.795-.053.742.053.901.424.742.583-.371 3.339-1.113 3.975-1.219.318-.106.424-.106.53 0 .159.159.053.265-.371.371-.954.265-2.332.689-1.908.53-.689.212-1.378.424-1.802.636l-.53.212c-.159.106-.265.265-.318.53-.053.212-.159.53-.265.689-.212.53-1.431 1.59-2.067 1.749m0-.583c.106 0 .424-.212.742-.53.583-.583.689-.742.742-1.06v-.265l-.371.212-.53.318c-.106.053-1.007.583-1.007.901 0 .212.212.424.424.424m7.35 7.473c-.159-.212-.106-.742.053-.901l.053-.212c0-.053.106-.212.212-.371l4.24-5.088.901-1.113c.106-.106.318-.424.583-.689.848-1.113 1.696-2.067 3.233-3.816.159-.159.371-.424.424-.53s.212-.265.265-.371l.742-.848c0-.053.053-.053.053-.106.265-.318.689-.795.954-1.06.848-.848 1.166-1.219.954-1.06a.56.56 0 0 1-.265.106s-.053.053-.053.106c0 0-.053.053-.106.053s-.371.159-1.06.583c-.159.106-.53.318-.795.424-.265.159-.53.318-.53.371-.053 0-.106.106-.212.106l-.636.371-.689.371c-.159.053-.901.53-1.325.795-.424.212-2.279 1.219-2.597 1.431a4 4 0 0 1-.795.318l-2.173 1.007c-1.007.477-1.961.689-1.961.689h-.159l-.318.053c-.53.053-.795-.106-.795-.424v-.159c0-.53.424-1.06 1.378-1.855.371-.265.795-.424.901-.371.265.106.106.371-.53.901l-.583.477c-.053.053-.159.106-.159.212l-.159.053a1.02 1.02 0 0 0-.212.636c.212.106.636-.053.636-.053.689-.159 2.173-.742 4.293-1.643.848-.424 2.226-1.219 2.703-1.484l2.385-1.325.795-.477a23 23 0 0 0 2.014-1.219c.318-.159.636-.371.795-.424.106-.053.212-.106.212-.159s0-.053.053-.053 1.007-.583 1.06-.636l.583-.424c.265-.159.795-.636 1.166-.954.371-.371.848-.795 1.007-.901.159-.159.265-.265.212-.318 0-.053.053-.053.106-.053.053.053.159 0 .212-.106l.053-.159-.689.053c-.424 0-.954.053-1.166.053-.265.053-.954.106-1.59.159-.636 0-1.431.053-1.749.106-.742 0-1.643.159-2.279.318-.265.053-.477.106-.53.053-.106-.053-.106-.477 0-.53.265-.159 2.014-.371 3.922-.477.53-.053 1.325-.053 1.696-.106.371 0 1.219-.053 1.855-.106l1.113-.053.901-.848 1.219-1.272c.424-.583.954-1.06 1.378-1.272.954-.53 1.484.053.848.901-.159.212-.477.583-.742.795-.212.159-.53.477-.689.583a1.6 1.6 0 0 1-.371.265c-.265.159-1.166.795-1.113.795.371 0 .901.053 1.696.053h.689s4.823.159 6.095.318c.424 0 1.166.053 1.59.106 2.12.106 5.618.742 6.36 1.166.265.159.318.212.318.424 0 .371-.212.424-.424.159s-1.961-.848-2.597-.848l-.424-.053c-.106-.053-.424-.106-.742-.159-.318 0-.583-.053-.636-.053-.053-.053-2.173-.265-3.339-.318l-1.113-.106c-.159 0-1.325-.053-2.544-.053l-2.067-.106h-1.06c-.053 0-.106 0-.159.053-.424-.053-1.484-.053-1.908-.053-.424.053-.848.318-1.325.742-.159.159-.265.265-.318.265s-1.166.795-1.537 1.166c-1.219 1.113-4.77 4.982-4.823 4.982-.159.265-.371.477-.583.742-.212.212-.477.583-.689.795-.159.212-.583.689-.901 1.06-.371.371-.848 1.007-1.166 1.378-.265.371-.795.954-1.113 1.325-1.537 1.802-5.724 7.049-5.989 7.791-.106.371-.265.424-.424.106m18.603-20.882.371-.265c.212-.159.371-.318.371-.371 0 0 0-.053.053 0 .053 0 .212-.106.371-.265.212-.159.371-.318.424-.318q.08 0 .159-.159c.053-.053.053-.106.053-.053.053.106 1.378-1.272 1.378-1.378 0-.159-.265-.159-.583-.053-.106.106-.424.371-.689.689-.212.265-.583.689-.795.848-.159.212-.265.424-.265.424.053.053 0 .053-.053.053-.053-.053-.106 0-.159.106-.053.159-.106.212-.159.212s-.212.106-.318.265zm-16.589 7.685c-.212.106-.53-.212-.371-.318.053-.053.106-.159.106-.318.053-.318.265-.424.477-.265.053.053.159.159.159.265.053.212-.159.583-.371.636"/></svg>