<svg xmlns="http://www.w3.org/2000/svg" width="186" height="71" fill="none"><path fill="#fff" d="M15.688 59.892c-.159-.053-.371-.053-.424-.053-.212.106-2.279-.477-3.339-.848l-2.12-.848-.636-.318c-1.59-.742-2.226-1.219-3.021-2.279l-.424-.53v-.053l-.159-.53c-.583-1.537-.106-3.233 1.431-4.876.795-.954 1.007-1.06 2.438-2.014.742-.53 1.484-.954 2.014-1.166l1.59-.636c.424-.212 1.166-.424 1.59-.583.477-.106.901-.265.954-.318.053 0 .318-.106.583-.159l1.007-.212c1.59-.424 1.855-.477 2.385-.583.742-.106 1.007-.159 1.113-.265 0 0 .106-.053.159-.053.159.053.636 0 .742-.053l.689-.106c.265 0 .583-.053.636-.053.106-.053.848-.212 1.007-.212l1.007-.106c3.021-.477 4.982-.689 6.837-.689 2.915-.053 3.286 0 3.18.371 0 .159-.106.212-.477.424-.212.053-.477-.053-.424-.212 0-.106-.106-.159-1.378-.159-1.643 0-2.756 0-3.445.106-.371.053-.795.106-.954.106-.265 0-.901.053-1.06.159-.053 0-.212.053-.318.053H26.5c-.265.053-1.113.159-1.378.159-.159 0-.53.053-.795.106l-.583.106c-.053 0-.583.053-1.272.212l-.424.053c-.265 0-.371.053-1.113.212l-.636.106-1.219.265c-.848.106-3.339.742-3.975 1.007l-.954.318c-.477.159-2.226.848-2.279.901l-.424.212c-.636.265-1.59.848-3.127 1.961-.371.212-1.749 1.696-1.749 1.855 0 .053-.053.159-.106.265-.53.53-.795 1.431-.795 2.226 0 .53.265 1.59.53 1.855l.424.583c.53.742 1.749 1.643 2.385 1.749l.424.212c.159.106.689.371 1.272.583l1.378.583c1.59.636 3.021.954 4.399.901h.795c.636.053 3.127-.212 3.869-.318l.901-.212 1.007-.212.954-.212.689-.106c.159 0 1.219-.371 1.59-.477l.371-.159c.106.053 2.544-1.007 2.756-1.113l.53-.318c.583-.318 1.272-.742 1.643-1.113l.742-.53c.265-.159.636-.424.795-.636l.477-.371c.265-.212 1.272-1.113 1.272-1.166s.106-.159.212-.212c.318-.212.848-.742.848-.795s.159-.212.318-.318c.424-.318.477-.371.477-.424l.212-.212a1.6 1.6 0 0 0 .265-.371c0-.053.053-.106.053-.106.053.053.742-.636 1.06-1.06.053-.106.159-.159.159-.159a.114.114 0 0 0 .106-.106c0-.106.053-.106.106-.106s.106-.053.159-.106l.636-.795.477-.53.848-1.007c.901-1.06 1.113-1.378 1.219-1.431.053-.053.106-.106.106-.212 0-.053.053-.106.106-.106 0 0 .318-.318.583-.689.318-.424.689-.901.901-1.06.159-.212.318-.424.318-.477.053-.053.053-.106.106-.106s.106-.106.159-.159c.053-.106.106-.212.159-.212.053.053.106-.053.106-.106 0-.106.053-.159.106-.159s.106 0 .053-.053c0-.053.689-1.007 1.06-1.431.106-.106.212-.318.212-.371.053-.106.106-.212.159-.212s.053-.106.053-.159 0-.106.053-.053c0 0 .159-.159.318-.371.106-.212.318-.477.424-.583l.212-.212c0-.053.954-1.378 1.113-1.537l.212-.265.265-.371.318-.477c.106-.053.742-.954.742-1.06.053-.053.053-.106.106-.106.106 0 .424-.583.424-.636s0-.106.053-.106c.053.053.106 0 .106-.053 0-.106.053-.159.106-.106.053 0 .053-.053.106-.106 0-.053.106-.265.265-.424l1.325-1.802.53-.795c0-.053.106-.212.212-.371l.371-.477.159-.265c.053 0 .159-.265.371-.477l.424-.636.318-.53c.265-.371.848-1.272.954-1.484l.53-.742c.212-.318.424-.636.424-.742.053-.053.106-.212.212-.265s.265-.265.371-.477l.689-.954c.212-.318.424-.636.371-.636 0-.053-.159.053-.318.159a5 5 0 0 1-.742.371c-.212.106-.424.212-.424.265 0 0-.106.053-.212.053-.053 0-.265.106-.371.159a8 8 0 0 1-.689.371 7 7 0 0 0-.901.424l-.477.265c-.053 0-1.537.636-1.749.795l-.212.106-.159-.053-.371.212c-.159.106-.318.159-.318.106-.053 0-.159 0-.318.106-.106.106-.371.212-.636.318-.212.053-.477.159-.636.212a7.5 7.5 0 0 1-1.431.636c-.318.106-.583.212-.636.212 0 .053-.053.053-.106.053 0-.053-.106 0-.212.053s-.212.106-.265.106l-.371.106c-.159.106-.318.159-.371.159-.212-.053-1.272.371-1.272.477s-.106.106-.159.106c-.106-.053-1.325.371-1.325.477 0 .053-.477.212-1.59.583l-.583.212-.53.159c-.053.053-.265.106-.848.318l-.477.159c-.212.106-1.484.477-1.59.477-.053 0-.212.053-.318.106a.6.6 0 0 1-.318.159l-.848.212c-.371.159-.742.265-.795.265h-.159c-.053.106-.583.265-3.286 1.06-.583.159-1.06.318-1.113.371h-.212c-.106 0-.212.053-.318.106s-.212.106-.265.106-.689.159-1.431.371l-2.226.583-1.696.424c-.689.106-2.809.636-3.021.689-.053.053-.371.106-.636.159l-.848.159c-.159.053-.371.053-.424.053s-.371.053-.742.159l-.742.106c-.106 0-.318 0-.477.106l-.848.159-.901.106c-.212.053-.742.106-1.166.106l-.954.106h-.318l-.212.053h-.795c-.371-.053-.795-.053-.901 0a27 27 0 0 1-1.802-.106c-.371-.106-.424-.159-.583-.371a1 1 0 0 1-.159-.477c0-.212.053-.265.212-.265.159.053.318.106.477.212.318.265.477.318.848.318h.689c.689.053 1.696.053 2.332 0 .689 0 3.551-.318 4.028-.424l.477-.106.848-.106c.318-.053.742-.106.901-.159l.424-.106c.106 0 .848-.106 1.166-.212l4.028-.901c1.59-.371 4.982-1.219 6.254-1.643l2.597-.742 1.007-.371.371-.106c.106.053.159 0 .212 0 0-.053.318-.159.636-.265.371-.053.689-.212.795-.265l.212-.053c.053.053.583-.106 1.113-.318l1.325-.424 2.703-.954.742-.212c.424-.159.742-.265.795-.265s.265-.053.424-.159.53-.265.848-.371c.371-.053.689-.212.795-.265l.424-.212 3.233-1.219c.371-.159.636-.265.689-.318s.265-.106.424-.159l.424-.159c.106-.106.795-.424 1.484-.689l.583-.318 1.325-.689c.424-.212.795-.424.795-.477 0 0 .053-.053.106 0s.212-.053.424-.159c.212-.159.424-.265.424-.265.053 0 .901-.424 1.219-.636.159-.106.318-.159.318-.159a.114.114 0 0 0 .106-.106c0-.053.106-.106.265-.159.106 0 .159-.106.159-.106 0-.053 0-.106.053-.053a.4.4 0 0 0 .212-.106l.318-.371c.265-.212 1.007-1.113.954-1.113s.53-.371.636-.371c.106-.053.265.159.265.424-.053.265-.265.636-.689.954-.424.371-1.378 1.431-1.749 1.908l-.636.848-.318.53-.424.583c-.689.954-1.166 1.749-2.067 3.18l-.477.742-1.749 2.491c0 .053-.265.424-.901 1.272l-1.325 1.802-.583.848-.742 1.06-.636.901-.848 1.06-2.756 3.763c-.689 1.007-1.431 1.961-1.537 2.014-.053 0-.106.053-.106.159l-.106.159c-.053-.053-.212.159-.424.424l-.424.53c-.212.212-1.219 1.378-1.325 1.537-.053.106-1.06 1.272-1.378 1.59l-.53.689c-.265.318-.583.636-.689.689a2.7 2.7 0 0 0-.318.371c-.106.159-.371.424-.583.636l-1.484 1.431-.318.318-2.332 2.12-.371.318-.848.583-.954.689c-.742.583-2.544 1.537-3.286 1.802l-1.007.424c-.371.159-1.113.371-1.643.53-.477.106-.954.265-1.007.318s-.159.106-.212.053c-.053 0-.159 0-.265.053l-1.961.424c-.265.053-1.961.318-2.597.371l-.901.053c-.424.106-2.809.106-3.392 0m36.977-17.861c-.212 0-.318-.106-.424-.265-.159-.212-.159-.371-.106-.583 0-.159.053-.371.159-.53l.159-.371c0-.053-.689.318-1.113.689-.424.318-1.484.848-1.749.848-.318 0-.477-.053-.477-.318 0-.159.106-.265.371-.477.636-.53 1.643-1.166 2.438-1.59.901-.477 1.06-.53 1.113-.318 0 .053.159.106.265.106.636 0 .106.636-.106.901-.265.318-.636.901-.424 1.378.053.212.742 0 .742 0 .689-.159 2.279-.795 4.611-1.802l.106-.053h.159l.053.053c.106.053.106.212 0 .265l-3.021 1.378c-1.007.477-1.961.689-1.961.689h-.159a1.3 1.3 0 0 1-.636 0m-2.968-.689.318-.106c.424-.212 1.325-.742 1.431-.848s.318-.265.742-.477c.159-.053.318-.159.318-.212 0-.106-.106-.106-.636.212-.689.318-1.537.901-1.855 1.219zm15.472 1.855c-.795.053-1.166.053-1.59-.053-1.06-.265-1.43-.901-1.113-2.067.053-.212.053-.424 0-.424 0-.053-.106 0-.265.053-.265.159-1.537.477-2.014.53-.37 0-.424 0-.636-.159-.106-.106-.159-.212-.106-.265.16-.159-.37.106-1.113.636-1.007.636-1.325.795-1.537.583-.159-.159-.106-.318.053-.636.16-.265 1.643-1.961 1.75-2.067.105-.053.476 0 .476.106v.159c.053.159-.37.689-.848 1.113-.053.053-.212.159-.212.212.053.053.212-.053.265-.053l.212-.106.106-.106.795-.477.265-.212c.318-.265.583-.265.742-.106.106.106.106.159 0 .424-.159.265-.159.265 0 .318.265.053 2.703-.689 2.862-.848.16-.106.636-.212.795-.106.16.159.106.318-.106.477-.318.212-.742.742-.795 1.272-.053.424-.053.636.106.848.212.371.583.477 1.484.477 2.491-.159 4.452-.954 6.413-1.696l.69-.212 1.748-.742.212-.053.53-.265c.106-.053.212-.053.318-.106h.16c.052.053.158.106.105.212s-.159.106-.265.159l-.159.106c-1.802.848-2.014.901-3.392 1.431-2.12.901-4.558 1.484-5.936 1.643m11.692-4.929c-.212.106-.53-.212-.371-.318.053-.053.106-.159.106-.318.053-.318.265-.424.477-.265.053.053.159.159.159.265.053.212-.16.583-.371.636m-3.021 3.816c-.53.053-.795-.106-.795-.424v-.159c0-.53.424-1.06 1.378-1.855.37-.265.795-.424.9-.371.266.106.107.371-.53.901l-.9.742a1.02 1.02 0 0 0-.212.636c.212.106.636-.053.636-.053.742-.159 2.332-.795 4.664-1.802l.106-.053h.106l.106.053c.106.053.106.212-.053.318l-.636.265-2.332 1.06c-.848.371-1.855.689-2.438.742m3.815.159c-.265.318-.742.212-.69-.212.054-.106.213-.318.372-.53l.477-.583c.424-.53 1.643-1.749 2.12-2.014.212-.159.318-.159.477-.106.318.106.212.424-.318.901-.424.371-.583.583-.424.477l.477-.212c.265-.159 1.378-.636 1.484-.742.318-.159.477-.106.53.212.053.159.106.212.212.212.318 0 1.378-.477 1.855-.795.159-.106.318-.159.37-.159.054 0 .213-.106.425-.212.424-.318.583-.318.689-.106.106.159.053.318-.265.636-.16.106-.265.159-.424.159-.106 0-.371.053-.477.106l-.583.265-.848.424c-.742.265-1.166.318-1.484.159-.212-.159-.265-.159-.53-.053l-.583.318c-1.113.53-1.431.689-1.643.901l-.583.424c-.212.159-.53.371-.636.53m10.878-.212c-.212 0-.318-.106-.424-.265-.159-.212-.159-.371-.106-.583 0-.159.053-.371.16-.53l.158-.371c0-.053-.689.318-1.113.689-.424.318-1.484.848-1.749.848-.318 0-.477-.053-.477-.318 0-.159.106-.265.371-.477.636-.53 1.643-1.166 2.438-1.59.901-.477 1.06-.53 1.113-.318 0 .053.16.106.265.106.636 0 .106.636-.106.901-.265.318-.636.901-.424 1.378.053.212.742 0 .742 0 .69-.159 2.28-.795 4.611-1.802l.106-.053h.16l.052.053c.106.053.106.212 0 .265l-3.02 1.378c-1.008.477-1.962.689-1.962.689h-.159a1.3 1.3 0 0 1-.636 0m-2.968-.689.318-.106c.424-.212 1.325-.742 1.431-.848s.318-.265.742-.477c.16-.053.318-.159.318-.212 0-.106-.106-.106-.636.212-.689.318-1.537.901-1.855 1.219zm21.037 14.999c-.477 0-.636 0-1.007-.159-.265-.106-.636-.318-.742-.424l-.371-.318c-.106-.053-.742-1.113-.742-1.219l-.106-.424c-.106-.159-.212-.636-.265-1.06-.106-.795-.106-.901.212-1.537l.212-.477.477-.848.318-.53.477-.954a27.7 27.7 0 0 1 2.968-3.975l.636-.742c.424-.636 3.339-3.021 4.823-3.975.53-.318.901-.689.954-.901l.265-.318c.053-.053.159-.159.159-.212s.053-.159.159-.212l1.855-2.173a.6.6 0 0 0 .159-.318c-.053 0 0-.053.053 0 0 0 .159-.106.318-.265.848-1.007 1.484-1.749 1.59-1.802l.795-.848c.106-.053.106-.106.053-.053-.053 0-.106 0-.106-.053s.053-.053.106-.053c.106 0 .477-.424.424-.53 0-.053.053-.053.106-.053.053.053.159-.053.212-.159l1.007-1.166.053-.159.265-.265c.106-.106.212-.265.212-.318s.053-.053.053-.053c.053 0 .159-.106.212-.212l.212-.265c.106-.053.106-.159.106-.159 0-.053 0-.106.106-.106.053-.053.106-.106.106-.159s.053-.106.106-.159.212-.159.265-.318c.212-.318.371-.477.583-.636.318-.318 1.007-1.166.954-1.219 0-.106.053-.106.106-.106.106.053.795-.795.901-1.06.053-.106.371-.424.689-.742.371-.265.848-.742 1.06-1.06l.636-.689q.159-.239.159-.318c.053-.053.053-.053.106-.053s.106-.053.159-.106c.053-.106.106-.212.159-.265l.477-.53c.477-.53.901-.954 1.272-1.325.159-.106.318-.318.318-.371.053-.106.053-.159.106-.159 0 .053.106 0 .159-.106.159-.212.477-.477.742-.742l.371-.318c.159-.212.159-.265.053-.265-.053-.053-.318-.053-.583 0l-3.763.106-1.749.106-.636.053-1.855.212-1.007.159-.53.053-3.286.53a4.6 4.6 0 0 1-.901.159c-.159 0-.265 0-.318.053l-.53.106c-.265 0-.53.053-.583.053-.053.053-1.007.265-1.59.318l-1.59.318c-2.12.371-7.155 1.59-7.738 1.908a1.3 1.3 0 0 1-.424.106l-.265.106-.636.265c-1.007.424-1.908.795-2.12.954l-.53.371c-.53.265-1.325.848-1.59 1.166-.053.053-.159.265-.212.424-.052.265-.158.371-.37.318-.16-.106 0-.742.264-1.06.213-.265.742-.689 1.219-1.007l.53-.318 1.272-.636c.424-.265 2.491-1.007 3.498-1.272l1.06-.318c.954-.265 3.445-.848 3.869-.901l4.929-.954 4.293-.742c.583-.106 1.961-.371 2.12-.371l.583-.053 1.537-.212c1.643-.212 2.014-.265 3.286-.318l4.081-.159c.265-.053.477-.053.53-.106l.318-.053.318-.106c.159-.053.212-.053.424.053.159.106.159.265-.106.424l-.53.583c-.212.265-.477.583-.689.742l-.318.318c0 .053-.106.106-.212.212-.106.053-.265.212-.371.371-.159.212-.742.901-1.219 1.325-.159.159-.265.318-.265.371.053 0 0 .053-.053.053s-.636.689-.583.742l.477-.212.742-.424c.159-.053.318-.159.371-.212h.053c0 .053.053.053.106-.053.106-.159.477-.318 1.749-.848l1.113-.477c.318-.159 2.703-.954 2.968-1.007l.318-.106.954-.212c2.968-.583 5.194-.424 5.936.53.265.318.212 1.378-.106 2.438-.212.795-.954 2.756-1.219 3.233-.159.212-.212.424-.265.477 0 .053 0 .106-.053.106s-.265.265-.53.636c-.212.371-.477.689-.53.795l-.318.371-.265.371c-.212.318-1.166 1.59-1.166 1.643l-.159.159-.371.53-.689.901-.424.583-.371.424-.424.477a.4.4 0 0 1-.159.159c-.053 0-.106 0-.106.053 0 .106-.636.901-1.113 1.431l-.742.795-.424.424c-.106.053-.901.954-1.166 1.272l-.477.424-.795.795-6.042 5.724-.477.424-1.113 1.113-.689.636-1.219 1.06c-1.908 1.696-3.869 3.286-4.876 3.975l-1.537 1.113-.477.318-.848.53c-1.749 1.113-3.975 2.173-5.141 2.491-.159 0-.318.106-.318.106-.053.053-.159.053-.265.053s-.371.106-.583.159c-.424.159-1.219.318-2.014.371m-.583-.424c.477.106 1.961-.106 2.809-.371l.689-.212 1.113-.424c.318-.159.689-.265.742-.265s.106 0 .106-.053.159-.106.318-.212c.954-.371 3.445-1.855 4.24-2.544l.636-.477c.848-.53 1.643-1.166 2.809-2.12 1.643-1.378 1.749-1.431 1.908-1.643l.159-.159c0 .053.265-.159.53-.424.318-.265.583-.477.583-.53 0 0 .106-.159.265-.265l.689-.636.689-.583 1.378-1.378c.106-.106.212-.212.212-.265 0 0 .053-.106.212-.212.159-.159.689-.636 1.272-1.219l.795-.689.477-.424.53-.53c.265-.265.53-.53.53-.583 0 0 0-.053.053-.053s.371-.318.795-.689c.371-.424.742-.742.795-.742 0 0 .053 0 .053-.053s.159-.212.318-.371c.742-.742 1.166-1.113 1.537-1.537l1.007-1.06a5.6 5.6 0 0 1 .53-.636c0-.053.053-.053.053-.053.159-.053.53-.53.477-.636-.053-.053 0-.053.053-.053.053.053.159.053.159-.053l.583-.689c.265-.318.477-.636.477-.689 0 0 .053-.053.106-.053s.106-.053.159-.106c0-.106.159-.265.318-.477.159-.159.265-.318.265-.371 0 0 .053-.106.159-.159s.159-.106.106-.159v-.053c.053.053.636-.636.689-.742l.583-.795c.795-1.007.954-1.272.848-1.219-.053 0 0-.053.106-.159.265-.265.583-.636 1.378-1.855l.424-.583.583-1.007.212-.53.159-.371c.159-.212.742-2.014.795-2.279l.053-.477c.159-.424.053-.954-.212-1.113-.106-.106-.371-.212-.53-.265-.477-.212-2.173-.265-3.233-.159-.901.159-2.332.424-2.597.53l-.742.212c-.636.212-3.127 1.219-4.081 1.643l-.583.318c-.053 0-.106.053-.053.106 0 .053 0 .053-.053 0-.053 0-.159 0-.265.106-.106.053-.265.159-.318.159a.46.46 0 0 0-.371.212l-.583.371c-.159.053-.424.265-.636.371a7.5 7.5 0 0 1-.954.583 4.5 4.5 0 0 0-.689.53l-.318.318-.954 1.06c-.212.212-1.166 1.325-1.166 1.378l-.212.212-.265.318-1.749 2.12-.636.742-.318.424c-.159.159-.318.371-.318.424 0 0 0 .053-.053.053s-.106.106-.212.212l-.53.583c-.477.53-.848 1.007-.848 1.007l-.318.318c-.159.159-.424.424-.583.636l-.424.477-.477.53-1.113 1.219-.106.159c-.053.106-.636.742-.795.901-.159.106-.053.212.159.053l.265-.159c.265-.053.954-.477 1.007-.53 0 0 .053-.053.106-.053a.5.5 0 0 0 .159-.053c.053-.053.265-.212.477-.318l.689-.424.636-.318.954-.583 1.06-.636 3.18-1.961 1.325-.742.742-.424.636-.318c.053 0 .106 0 .106-.053.053-.053.265-.159.583-.318l2.014-.901c.265-.106.477-.212.53-.318.053-.053.106-.053.106 0s.159 0 .477-.106c.212-.159.477-.212.53-.212l.53-.159c.265-.106.53-.212.636-.212.212-.053.954-.212 1.378-.371.159 0 .583-.106.954-.159.795-.053 1.113.053 1.166.371.053.212-.212.795-.371.901-.212.106-.424 0-.424-.212 0-.106-.053-.265-.106-.318-.159-.106-.212-.159-.636-.053l-.742.053c-.318.053-1.431.318-1.537.371-.053.053-.212.106-.371.106-.318.053-.318.053-1.325.477-.371.159-.795.318-.901.318a2 2 0 0 0-.477.212c-.106.053-.212.106-.265.106s-.159.106-.265.159-.212.159-.265.159-.318.106-.53.212c-.265.159-.477.265-.53.265 0 0-.265.106-.53.265s-.477.265-.53.265c-.106 0-.106.053-.159.053 0 .053-.053.106-.212.159l-.265.159-2.65 1.537c-.265.159-.477.318-.53.318a.114.114 0 0 1-.106.106c-.053-.053-.212.053-.318.106-.318.265-1.007.742-1.166.795-.424.212-1.219.636-1.59.901l-1.007.636-.848.477-.318.212c-1.378.689-2.438 1.537-2.968 2.173l-.689.901-.265.424-.265.318a26 26 0 0 0-1.325 1.696l-.848 1.06c-1.484 1.802-2.12 2.703-2.385 3.233-.106.159-.265.477-.424.689-.212.318-.265.371-.477.371s-.212 0-.159-.371c.053-.742.901-1.908 3.18-4.717l.583-.742.371-.53.795-1.007.424-.53c.053-.053.106-.106.106-.159 0-.159.053-.159-.583.371l-.371.212c-.106 0-.318.212-.318.318 0 0-.053.053-.106.053-.159 0-2.438 1.908-2.438 2.067 0 .053-.106.159-.212.212l-1.113 1.113c0 .053-.106.212-.265.371-.636.636-2.491 3.286-2.862 4.028l-.265.477-.265.583-.371.689c-.583.954-.636 1.749-.265 2.703.265.636.371.954.371 1.007s.053.106.106.159a.54.54 0 0 1 .265.318c.159.318.901.795 1.378.901m29.303-13.886c-.212 0-.318-.106-.424-.265-.159-.212-.159-.371-.106-.583 0-.159.053-.371.159-.53l.159-.371c0-.053-.689.318-1.113.689-.424.318-1.484.848-1.749.848-.318 0-.477-.053-.477-.318 0-.159.106-.265.371-.477.636-.53 1.643-1.166 2.438-1.59.901-.477 1.06-.53 1.113-.318 0 .053.159.106.265.106.636 0 .106.636-.106.901-.265.318-.636.901-.424 1.378.053.212.742 0 .742 0 .689-.159 2.279-.795 4.611-1.802l.106-.053h.159l.053.053c.106.053.106.212 0 .265l-3.021 1.378c-1.007.477-1.961.689-1.961.689h-.159a1.3 1.3 0 0 1-.636 0m-2.968-.689.318-.106c.424-.212 1.325-.742 1.431-.848s.318-.265.742-.477c.159-.053.318-.159.318-.212 0-.106-.106-.106-.636.212-.689.318-1.537.901-1.855 1.219zm9.802 2.544c-.159.106-.424-.053-.477-.318 0-.212 2.809-3.71 3.498-4.399.265-.212.477-.477.477-.477-.053 0-.424.212-.901.477l-1.802 1.113-.477.265-.53.265c-.265.159-.477.318-.53.318l-.212.106c-.424.265-1.272.689-1.802.848-.583.212-.742-.106-.371-.636.424-.636 1.696-1.749 2.385-2.12 1.06-.583 1.643-.636 2.014-.159l.159.159.371-.212.848-.53c.265-.159.795-.477 1.272-.689.848-.424 1.696-1.007 2.067-1.378l2.067-2.12.53-.53c.848-.795 1.007-.954 1.643-1.643.795-.848 1.696-1.696 2.173-2.014l.901-.689c.265-.265.742-.583.954-.742.583-.318.848-.371.901-.053.053.212-.053.371-.477.954-.477.636-.954 1.166-1.908 2.12-.53.583-1.961 1.749-2.597 2.173l-.795.636c-.265.265-1.219.901-1.537 1.113l-.795.583-.742.583-.954.901c-.901.742-2.544 2.544-3.922 4.346zm8.427-8.904.901-.689.848-.689c.371-.265 1.007-.795 1.484-1.219 1.272-1.219 1.643-1.537 2.12-2.173.795-.954.583-.901-.848.159l-.689.583-.424.424a9 9 0 0 0-1.219 1.272l-.689.689c-1.06.954-1.749 1.749-1.484 1.643m-10.653 6.307c.053 0 .424-.212.795-.424.424-.212.795-.371.848-.371.053-.053.265-.159.53-.318.424-.212.689-.53.583-.636-.106-.053-.477-.053-.636 0l-.53.265c-.265.106-.424.212-.477.265l-.424.371c-.477.424-.848.848-.689.848m10.609.742c-.212 0-.318-.106-.424-.265-.159-.212-.159-.371-.106-.583 0-.159.053-.371.159-.53l.159-.371c0-.053-.689.318-1.113.689-.424.318-1.484.848-1.749.848-.318 0-.477-.053-.477-.318 0-.159.106-.265.371-.477.636-.53 1.643-1.166 2.438-1.59.901-.477 1.06-.53 1.113-.318 0 .053.159.106.265.106.636 0 .106.636-.106.901-.265.318-.636.901-.424 1.378.053.212.742 0 .742 0 .689-.159 2.279-.795 4.611-1.802l.106-.053h.159l.053.053c.106.053.106.212 0 .265l-3.021 1.378c-1.007.477-1.961.689-1.961.689h-.159a1.3 1.3 0 0 1-.636 0m-2.968-.689.318-.106c.424-.212 1.325-.742 1.431-.848s.318-.265.742-.477c.159-.053.318-.159.318-.212 0-.106-.106-.106-.636.212-.689.318-1.537.901-1.855 1.219zm6.568 3.233c-.212.106-.53 0-.53-.159 0 0-.106-.159-.212-.265-.159-.159-.159-.265-.159-.583.053-.424.371-.742 1.113-1.166l.583-.424c.053 0 .212-.106.424-.159.212-.106.424-.212.477-.265 0-.106.053-.53.053-1.007 0-1.007.053-1.219.53-1.484.371-.212.53-.265.689-.106.212.265.106.477-.265.583-.265.053-.265.106-.371.795-.053.742.053.901.424.742.583-.371 3.339-1.113 3.975-1.219.318-.106.424-.106.53 0 .159.159.053.265-.371.371-.954.265-2.332.689-1.908.53-.689.212-1.378.424-1.802.636l-.53.212c-.159.106-.265.265-.318.53-.053.212-.159.53-.265.689-.212.53-1.431 1.59-2.067 1.749m0-.583c.106 0 .424-.212.742-.53.583-.583.689-.742.742-1.06v-.265l-.371.212-.53.318c-.106.053-1.007.583-1.007.901 0 .212.212.424.424.424m5.601-1.749c-.106-.053-.318-.159-.318-.318 0-.212.212-.424.371-.583l.477-.53.477-.583.212-.212 1.855-1.961c.53-.477.901-.901.901-.901-.053-.053-.424.053-.424.106-.106.053-.212.053-.265.106l-.954.318c-.212.053-.424.106-.583.212l-.53.265c-.212.053-.424.106-.53.106q-.318 0-.159-.318c.053-.053.265-.159.424-.212l1.643-.583.53-.212q.08-.08.318-.159c.212-.106.371-.159.424-.159s.106-.053.106-.053c0-.053.212-.106.477-.212l.477-.159c.159-.106.477-.424.742-.689l1.802-1.59 1.113-.954 1.696-1.325c.053-.053.795-.583 1.431-1.007l.901-.583.477-.318.583-.318c1.113-.636 2.597-1.272 3.71-1.59l.424-.106c.212-.106.742-.265 1.06-.318l.583-.106c.53-.106 1.06-.106 1.166.053.159.212.159.583-.106.954-.212.371-.901 1.06-1.166 1.219l-.795.583c-.318.265-.848.583-1.113.795l-.795.477c-.159.106-.371.212-.477.212a1.2 1.2 0 0 0-.265.159c0 .053-.106.159-.265.212l-.318.106c-.583.371-3.021 1.484-4.134 2.014-.212.106-.477.212-.583.212-.053 0-.477.159-.901.371l-.901.371c-.106.053-.53.212-1.219.53l-2.014.901-.265.159-.901.901c-1.007 1.007-2.438 2.438-2.597 2.703v.106c.053.053.159 0 .265-.053.424-.265.954-.424 1.855-.742.689-.212.901-.212 1.007-.053.053.106 0 .159-.212.424-.477.477-.795.848-.901 1.06l-.053.159c-.159.318-.212.53-.159.53h.106l.212-.053c.53-.212 2.385-1.007 3.074-1.325l1.325-.583c.212 0 .583 0 .106.318-1.007.371-.053 0-1.166.53-.265.106-.477.318-.583.318-.742.318-.636.371-.954.477-.212.106-1.643.742-2.067.795l-.106.053c-.159.053-.265 0-.424-.106-.265-.212-.265-.424-.053-.901l.159-.318c.159-.318.53-.795.583-.795s.053 0 .053-.053-.106 0-.265.053l-.583.212c-.212.053-.477.159-.583.265-.159.106-.318.159-.371.212l-.318.159-.636.636-.106.053-.159.106-.159.159-.265.212-.159.106c-.053.053-.106.106-.265.053m6.466-6.784c0 .053.159 0 .53-.159.318-.159.583-.318.636-.318s.318-.106.53-.212c.265-.106.477-.212.53-.212s.318-.106.583-.212l1.166-.477 1.06-.477.742-.265c.159-.053.53-.212.848-.424l1.007-.477.583-.318.636-.318 1.802-1.007c.689-.424 1.484-.954 1.802-1.272l.53-.424c.053 0 .212-.212.318-.371l.318-.371s.053-.106.053-.159a.4.4 0 0 0-.212-.212c-.159-.053-1.06.053-1.219.106l-.848.265c-.954.265-2.332.795-3.339 1.272-1.325.689-3.021 1.802-3.816 2.438l-.424.318c-.106 0-2.067 1.643-3.127 2.597l-.636.53c-.053 0-.053.106-.053.159m4.026 2.809c-.212.106-.53-.212-.371-.318.053-.053.106-.159.106-.318.053-.318.265-.424.477-.265.053.053.159.159.159.265.053.212-.159.583-.371.636m-3.021 3.816c-.53.053-.795-.106-.795-.424v-.159c0-.53.424-1.06 1.378-1.855.371-.265.795-.424.901-.371.265.106.106.371-.53.901l-.901.742a1.02 1.02 0 0 0-.212.636c.212.106.636-.053.636-.053.742-.159 2.332-.795 4.664-1.802l.106-.053h.106l.106.053c.106.053.106.212-.053.318l-.636.265-2.332 1.06c-.848.371-1.855.689-2.438.742"/></svg>